<svg xmlns="http://www.w3.org/2000/svg" xmlns:xlink="http://www.w3.org/1999/xlink" width="2000" zoomAndPan="magnify" viewBox="0 0 1500 1499.999933" height="2000" preserveAspectRatio="xMidYMid meet" version="1.0"><defs><clipPath id="3c18131b35"><path d="M 21.410156 21.410156 L 1478.589844 21.410156 L 1478.589844 1478.589844 L 21.410156 1478.589844 Z M 21.410156 21.410156 " clip-rule="nonzero"/></clipPath><clipPath id="82b6adba10"><path d="M 750 21.410156 C 347.609375 21.410156 21.410156 347.609375 21.410156 750 C 21.410156 1152.390625 347.609375 1478.589844 750 1478.589844 C 1152.390625 1478.589844 1478.589844 1152.390625 1478.589844 750 C 1478.589844 347.609375 1152.390625 21.410156 750 21.410156 " clip-rule="nonzero"/></clipPath><clipPath id="fe61a8ee03"><path d="M 79.320312 1039.09375 L 1422 1039.09375 L 1422 1500 L 79.320312 1500 Z M 79.320312 1039.09375 " clip-rule="nonzero"/></clipPath><clipPath id="541e5b90ec"><path d="M 750.75 1039.09375 C 379.929688 1039.09375 79.320312 1302.585938 79.320312 1627.617188 C 79.320312 1952.644531 379.929688 2216.136719 750.75 2216.136719 C 1121.570312 2216.136719 1422.179688 1952.644531 1422.179688 1627.617188 C 1422.179688 1302.585938 1121.570312 1039.09375 750.75 1039.09375 " clip-rule="nonzero"/></clipPath><clipPath id="788aef7699"><path d="M 180.613281 1101.230469 L 1317 1101.230469 L 1317 1500 L 180.613281 1500 Z M 180.613281 1101.230469 " clip-rule="nonzero"/></clipPath><clipPath id="26d1fb7791"><path d="M 748.722656 1101.230469 C 434.964844 1101.230469 180.613281 1290.480469 180.613281 1523.933594 C 180.613281 1757.386719 434.964844 1946.636719 748.722656 1946.636719 C 1062.484375 1946.636719 1316.835938 1757.386719 1316.835938 1523.933594 C 1316.835938 1290.480469 1062.484375 1101.230469 748.722656 1101.230469 " clip-rule="nonzero"/></clipPath><clipPath id="abeec8c22b"><path d="M 72.570312 1174.015625 L 1148.878906 1174.015625 L 1148.878906 1500 L 72.570312 1500 Z M 72.570312 1174.015625 " clip-rule="nonzero"/></clipPath><clipPath id="c8cf441c89"><path d="M 610.710938 1174.015625 C 313.503906 1174.015625 72.570312 1416.089844 72.570312 1714.703125 C 72.570312 2013.316406 313.503906 2255.394531 610.710938 2255.394531 C 907.914062 2255.394531 1148.847656 2013.316406 1148.847656 1714.703125 C 1148.847656 1416.089844 907.914062 1174.015625 610.710938 1174.015625 " clip-rule="nonzero"/></clipPath><clipPath id="2c7f5bcc7c"><path d="M 650.0625 268.8125 L 849.5625 268.8125 L 849.5625 468.3125 L 650.0625 468.3125 Z M 650.0625 268.8125 " clip-rule="nonzero"/></clipPath><clipPath id="231943e526"><path d="M 755 371 L 841 371 L 841 454 L 755 454 Z M 755 371 " clip-rule="nonzero"/></clipPath><clipPath id="91ee9ac877"><path d="M 732.914062 427.273438 L 816.3125 348.453125 L 841.039062 374.617188 L 757.644531 453.4375 Z M 732.914062 427.273438 " clip-rule="nonzero"/></clipPath><clipPath id="d2a60379af"><path d="M 732.914062 427.273438 L 816.3125 348.453125 L 841.039062 374.617188 L 757.644531 453.4375 Z M 732.914062 427.273438 " clip-rule="nonzero"/></clipPath><clipPath id="e0d08ea0ec"><path d="M 659 284 L 745 284 L 745 367 L 659 367 Z M 659 284 " clip-rule="nonzero"/></clipPath><clipPath id="52fe9e10f9"><path d="M 658.941406 362.917969 L 742.335938 284.097656 L 767.066406 310.261719 L 683.667969 389.082031 Z M 658.941406 362.917969 " clip-rule="nonzero"/></clipPath><clipPath id="1b3c41ecc8"><path d="M 767.164062 310.214844 L 683.769531 389.035156 L 659.042969 362.871094 L 742.4375 284.050781 Z M 767.164062 310.214844 " clip-rule="nonzero"/></clipPath><clipPath id="974e059c18"><path d="M 663 373 L 748 373 L 748 457 L 663 457 Z M 663 373 " clip-rule="nonzero"/></clipPath><clipPath id="0aa9e36f33"><path d="M 689.003906 350.609375 L 770.140625 431.75 L 744.6875 457.207031 L 663.546875 376.066406 Z M 689.003906 350.609375 " clip-rule="nonzero"/></clipPath><clipPath id="2bce96b6a6"><path d="M 689.003906 350.609375 L 770.140625 431.75 L 744.6875 457.207031 L 663.546875 376.066406 Z M 689.003906 350.609375 " clip-rule="nonzero"/></clipPath><clipPath id="6b6352d729"><path d="M 755 284 L 841 284 L 841 367 L 755 367 Z M 755 284 " clip-rule="nonzero"/></clipPath><clipPath id="06bdb956e4"><path d="M 757.492188 284.417969 L 841.410156 362.683594 L 816.855469 389.007812 L 732.9375 310.742188 Z M 757.492188 284.417969 " clip-rule="nonzero"/></clipPath><clipPath id="82987708e3"><path d="M 732.914062 310.769531 L 816.832031 389.035156 L 841.386719 362.707031 L 757.46875 284.441406 Z M 732.914062 310.769531 " clip-rule="nonzero"/></clipPath><clipPath id="d9ad3cac77"><path d="M 674.886719 639.464844 L 823.386719 639.464844 L 823.386719 787.964844 L 674.886719 787.964844 Z M 674.886719 639.464844 " clip-rule="nonzero"/></clipPath><clipPath id="fdc52ae03b"><path d="M 753 716 L 818 716 L 818 778 L 753 778 Z M 753 716 " clip-rule="nonzero"/></clipPath><clipPath id="836cc38a65"><path d="M 736.75 757.769531 L 798.886719 699.042969 L 817.433594 718.664062 L 755.292969 777.394531 Z M 736.75 757.769531 " clip-rule="nonzero"/></clipPath><clipPath id="9e9563b0fc"><path d="M 736.75 757.769531 L 798.886719 699.042969 L 817.433594 718.664062 L 755.292969 777.394531 Z M 736.75 757.769531 " clip-rule="nonzero"/></clipPath><clipPath id="163d4a60aa"><path d="M 682 651 L 746 651 L 746 713 L 682 713 Z M 682 651 " clip-rule="nonzero"/></clipPath><clipPath id="ccc9669652"><path d="M 681.707031 710.179688 L 743.847656 651.449219 L 762.390625 671.070312 L 700.253906 729.800781 Z M 681.707031 710.179688 " clip-rule="nonzero"/></clipPath><clipPath id="8be69f0d73"><path d="M 762.5 670.824219 L 700.359375 729.554688 L 681.816406 709.933594 L 743.953125 651.203125 Z M 762.5 670.824219 " clip-rule="nonzero"/></clipPath><clipPath id="9e690ce91f"><path d="M 684 716 L 747 716 L 747 779 L 684 779 Z M 684 716 " clip-rule="nonzero"/></clipPath><clipPath id="b240031478"><path d="M 703.394531 699.789062 L 763.851562 760.246094 L 744.761719 779.335938 L 684.304688 718.878906 Z M 703.394531 699.789062 " clip-rule="nonzero"/></clipPath><clipPath id="fc011289e7"><path d="M 703.394531 699.789062 L 763.851562 760.246094 L 744.761719 779.335938 L 684.304688 718.878906 Z M 703.394531 699.789062 " clip-rule="nonzero"/></clipPath><clipPath id="17d4442322"><path d="M 751 651 L 816 651 L 816 712 L 751 712 Z M 751 651 " clip-rule="nonzero"/></clipPath><clipPath id="3c151e7820"><path d="M 753.589844 650.824219 L 816.117188 709.136719 L 797.703125 728.882812 L 735.175781 670.566406 Z M 753.589844 650.824219 " clip-rule="nonzero"/></clipPath><clipPath id="b1983c0660"><path d="M 735.25 670.492188 L 797.773438 728.804688 L 816.191406 709.0625 L 753.664062 650.746094 Z M 735.25 670.492188 " clip-rule="nonzero"/></clipPath><clipPath id="11e241b5de"><path d="M 1092.003906 855.082031 L 1200.875 855.082031 L 1200.875 963.957031 L 1092.003906 963.957031 Z M 1092.003906 855.082031 " clip-rule="nonzero"/></clipPath><clipPath id="b72490f8ec"><path d="M 1149 910 L 1197 910 L 1197 956 L 1149 956 Z M 1149 910 " clip-rule="nonzero"/></clipPath><clipPath id="d778d2affd"><path d="M 1137.304688 941.726562 L 1183.082031 898.460938 L 1196.550781 912.710938 L 1150.773438 955.976562 Z M 1137.304688 941.726562 " clip-rule="nonzero"/></clipPath><clipPath id="6fd310807d"><path d="M 1137.304688 941.726562 L 1183.082031 898.460938 L 1196.550781 912.710938 L 1150.773438 955.976562 Z M 1137.304688 941.726562 " clip-rule="nonzero"/></clipPath><clipPath id="40cbfb8604"><path d="M 1096 863 L 1144 863 L 1144 909 L 1096 909 Z M 1096 863 " clip-rule="nonzero"/></clipPath><clipPath id="c60c2981be"><path d="M 1096.449219 906.324219 L 1142.226562 863.058594 L 1155.691406 877.304688 L 1109.914062 920.574219 Z M 1096.449219 906.324219 " clip-rule="nonzero"/></clipPath><clipPath id="248d50ef96"><path d="M 1155.621094 877.507812 L 1109.84375 920.773438 L 1096.378906 906.523438 L 1142.15625 863.257812 Z M 1155.621094 877.507812 " clip-rule="nonzero"/></clipPath><clipPath id="be48b204f3"><path d="M 1099 912 L 1146 912 L 1146 958 L 1099 958 Z M 1099 912 " clip-rule="nonzero"/></clipPath><clipPath id="e1c1fe4363"><path d="M 1112.882812 899.8125 L 1157.425781 944.351562 L 1143.5625 958.214844 L 1099.019531 913.675781 Z M 1112.882812 899.8125 " clip-rule="nonzero"/></clipPath><clipPath id="b8b4971897"><path d="M 1112.882812 899.8125 L 1157.425781 944.351562 L 1143.5625 958.214844 L 1099.019531 913.675781 Z M 1112.882812 899.8125 " clip-rule="nonzero"/></clipPath><clipPath id="00a28fcb96"><path d="M 1149 863 L 1197 863 L 1197 909 L 1149 909 Z M 1149 863 " clip-rule="nonzero"/></clipPath><clipPath id="d987a58fb8"><path d="M 1150.746094 863.402344 L 1196.808594 906.363281 L 1183.4375 920.699219 L 1137.371094 877.738281 Z M 1150.746094 863.402344 " clip-rule="nonzero"/></clipPath><clipPath id="68ac34a4d6"><path d="M 1137.304688 877.8125 L 1183.371094 920.773438 L 1196.742188 906.433594 L 1150.675781 863.472656 Z M 1137.304688 877.8125 " clip-rule="nonzero"/></clipPath><clipPath id="632348787d"><path d="M 299.148438 855.082031 L 408 855.082031 L 408 963.957031 L 299.148438 963.957031 Z M 299.148438 855.082031 " clip-rule="nonzero"/></clipPath><clipPath id="e12c9e551b"><path d="M 356 910 L 404 910 L 404 956 L 356 956 Z M 356 910 " clip-rule="nonzero"/></clipPath><clipPath id="e62900a14a"><path d="M 344.453125 941.726562 L 390.230469 898.460938 L 403.695312 912.710938 L 357.917969 955.976562 Z M 344.453125 941.726562 " clip-rule="nonzero"/></clipPath><clipPath id="5b4a3ed622"><path d="M 344.453125 941.726562 L 390.230469 898.460938 L 403.695312 912.710938 L 357.917969 955.976562 Z M 344.453125 941.726562 " clip-rule="nonzero"/></clipPath><clipPath id="f699ad67b5"><path d="M 303 863 L 351 863 L 351 909 L 303 909 Z M 303 863 " clip-rule="nonzero"/></clipPath><clipPath id="9f8309994c"><path d="M 303.59375 906.324219 L 349.371094 863.058594 L 362.835938 877.304688 L 317.058594 920.574219 Z M 303.59375 906.324219 " clip-rule="nonzero"/></clipPath><clipPath id="6a2c28868b"><path d="M 362.765625 877.507812 L 316.988281 920.773438 L 303.523438 906.523438 L 349.300781 863.257812 Z M 362.765625 877.507812 " clip-rule="nonzero"/></clipPath><clipPath id="9aaaf3e0b3"><path d="M 306 912 L 353 912 L 353 958 L 306 958 Z M 306 912 " clip-rule="nonzero"/></clipPath><clipPath id="19fbffc1fd"><path d="M 320.03125 899.8125 L 364.570312 944.351562 L 350.707031 958.214844 L 306.167969 913.675781 Z M 320.03125 899.8125 " clip-rule="nonzero"/></clipPath><clipPath id="fa6b459340"><path d="M 320.03125 899.8125 L 364.570312 944.351562 L 350.707031 958.214844 L 306.167969 913.675781 Z M 320.03125 899.8125 " clip-rule="nonzero"/></clipPath><clipPath id="ef89f23d7f"><path d="M 356 863 L 404 863 L 404 909 L 356 909 Z M 356 863 " clip-rule="nonzero"/></clipPath><clipPath id="59f3482034"><path d="M 357.890625 863.402344 L 403.953125 906.363281 L 390.582031 920.699219 L 344.519531 877.738281 Z M 357.890625 863.402344 " clip-rule="nonzero"/></clipPath><clipPath id="fe0ad0768c"><path d="M 344.453125 877.8125 L 390.515625 920.773438 L 403.886719 906.433594 L 357.824219 863.472656 Z M 344.453125 877.8125 " clip-rule="nonzero"/></clipPath><clipPath id="9faeca2cd6"><path d="M 573.660156 874.742188 L 642.742188 874.742188 L 642.742188 943.828125 L 573.660156 943.828125 Z M 573.660156 874.742188 " clip-rule="nonzero"/></clipPath><clipPath id="7852c327a6"><path d="M 610 910 L 640 910 L 640 939 L 610 939 Z M 610 910 " clip-rule="nonzero"/></clipPath><clipPath id="1db3f705f1"><path d="M 602.40625 929.722656 L 631.453125 902.269531 L 640 911.308594 L 610.949219 938.765625 Z M 602.40625 929.722656 " clip-rule="nonzero"/></clipPath><clipPath id="14af54d162"><path d="M 602.40625 929.722656 L 631.453125 902.269531 L 640 911.308594 L 610.949219 938.765625 Z M 602.40625 929.722656 " clip-rule="nonzero"/></clipPath><clipPath id="158dfbdca3"><path d="M 576 880 L 607 880 L 607 909 L 576 909 Z M 576 880 " clip-rule="nonzero"/></clipPath><clipPath id="a9c9f19737"><path d="M 576.480469 907.257812 L 605.527344 879.804688 L 614.070312 888.84375 L 585.023438 916.300781 Z M 576.480469 907.257812 " clip-rule="nonzero"/></clipPath><clipPath id="f9a33fe849"><path d="M 614.027344 888.972656 L 584.980469 916.425781 L 576.433594 907.386719 L 605.480469 879.929688 Z M 614.027344 888.972656 " clip-rule="nonzero"/></clipPath><clipPath id="e953d34af6"><path d="M 578 910 L 608 910 L 608 941 L 578 941 Z M 578 910 " clip-rule="nonzero"/></clipPath><clipPath id="5f1530b1ec"><path d="M 586.910156 903.125 L 615.171875 931.386719 L 606.375 940.183594 L 578.113281 911.921875 Z M 586.910156 903.125 " clip-rule="nonzero"/></clipPath><clipPath id="b56615f3db"><path d="M 586.910156 903.125 L 615.171875 931.386719 L 606.375 940.183594 L 578.113281 911.921875 Z M 586.910156 903.125 " clip-rule="nonzero"/></clipPath><clipPath id="2f7fdda202"><path d="M 610 880 L 640 880 L 640 909 L 610 909 Z M 610 880 " clip-rule="nonzero"/></clipPath><clipPath id="2748cffaf4"><path d="M 610.933594 880.023438 L 640.160156 907.28125 L 631.675781 916.378906 L 602.449219 889.121094 Z M 610.933594 880.023438 " clip-rule="nonzero"/></clipPath><clipPath id="5b4d796767"><path d="M 602.40625 889.164062 L 631.632812 916.425781 L 640.121094 907.328125 L 610.890625 880.066406 Z M 602.40625 889.164062 " clip-rule="nonzero"/></clipPath><clipPath id="f1422fe865"><path d="M 856.976562 874.742188 L 926.058594 874.742188 L 926.058594 943.828125 L 856.976562 943.828125 Z M 856.976562 874.742188 " clip-rule="nonzero"/></clipPath><clipPath id="a57f18c900"><path d="M 893 910 L 924 910 L 924 939 L 893 939 Z M 893 910 " clip-rule="nonzero"/></clipPath><clipPath id="9f940be072"><path d="M 885.722656 929.722656 L 914.769531 902.269531 L 923.3125 911.308594 L 894.265625 938.765625 Z M 885.722656 929.722656 " clip-rule="nonzero"/></clipPath><clipPath id="3511684d87"><path d="M 885.722656 929.722656 L 914.769531 902.269531 L 923.3125 911.308594 L 894.265625 938.765625 Z M 885.722656 929.722656 " clip-rule="nonzero"/></clipPath><clipPath id="361cd8cfb6"><path d="M 859 880 L 890 880 L 890 909 L 859 909 Z M 859 880 " clip-rule="nonzero"/></clipPath><clipPath id="9cdd9b1246"><path d="M 859.796875 907.257812 L 888.84375 879.804688 L 897.386719 888.84375 L 868.339844 916.300781 Z M 859.796875 907.257812 " clip-rule="nonzero"/></clipPath><clipPath id="6a27d853eb"><path d="M 897.34375 888.972656 L 868.296875 916.425781 L 859.75 907.386719 L 888.796875 879.929688 Z M 897.34375 888.972656 " clip-rule="nonzero"/></clipPath><clipPath id="c048e5921d"><path d="M 861 910 L 891 910 L 891 941 L 861 941 Z M 861 910 " clip-rule="nonzero"/></clipPath><clipPath id="c911c15c7b"><path d="M 870.226562 903.125 L 898.488281 931.386719 L 889.691406 940.183594 L 861.429688 911.921875 Z M 870.226562 903.125 " clip-rule="nonzero"/></clipPath><clipPath id="2f3362ee67"><path d="M 870.226562 903.125 L 898.488281 931.386719 L 889.691406 940.183594 L 861.429688 911.921875 Z M 870.226562 903.125 " clip-rule="nonzero"/></clipPath><clipPath id="c0b556c300"><path d="M 893 880 L 924 880 L 924 909 L 893 909 Z M 893 880 " clip-rule="nonzero"/></clipPath><clipPath id="de1ab95b04"><path d="M 894.25 880.023438 L 923.476562 907.28125 L 914.992188 916.378906 L 885.761719 889.121094 Z M 894.25 880.023438 " clip-rule="nonzero"/></clipPath><clipPath id="04d095f233"><path d="M 885.722656 889.164062 L 914.949219 916.425781 L 923.433594 907.328125 L 894.207031 880.066406 Z M 885.722656 889.164062 " clip-rule="nonzero"/></clipPath><clipPath id="e227426beb"><path d="M 939.261719 579.753906 L 1008.347656 579.753906 L 1008.347656 648.839844 L 939.261719 648.839844 Z M 939.261719 579.753906 " clip-rule="nonzero"/></clipPath><clipPath id="6009861d2e"><path d="M 975 615 L 1006 615 L 1006 644 L 975 644 Z M 975 615 " clip-rule="nonzero"/></clipPath><clipPath id="6619f7eb81"><path d="M 968.007812 634.734375 L 997.058594 607.277344 L 1005.601562 616.320312 L 976.554688 643.773438 Z M 968.007812 634.734375 " clip-rule="nonzero"/></clipPath><clipPath id="39a23f2146"><path d="M 968.007812 634.734375 L 997.058594 607.277344 L 1005.601562 616.320312 L 976.554688 643.773438 Z M 968.007812 634.734375 " clip-rule="nonzero"/></clipPath><clipPath id="b78da86f1d"><path d="M 942 585 L 972 585 L 972 614 L 942 614 Z M 942 585 " clip-rule="nonzero"/></clipPath><clipPath id="47cf7e843e"><path d="M 942.082031 612.269531 L 971.132812 584.8125 L 979.675781 593.855469 L 950.628906 621.308594 Z M 942.082031 612.269531 " clip-rule="nonzero"/></clipPath><clipPath id="a596da56cb"><path d="M 979.632812 593.984375 L 950.585938 621.4375 L 942.039062 612.394531 L 971.085938 584.941406 Z M 979.632812 593.984375 " clip-rule="nonzero"/></clipPath><clipPath id="fe37177ae5"><path d="M 943 615 L 973 615 L 973 646 L 943 646 Z M 943 615 " clip-rule="nonzero"/></clipPath><clipPath id="9cd3b5088d"><path d="M 952.511719 608.136719 L 980.773438 636.398438 L 971.976562 645.195312 L 943.714844 616.933594 Z M 952.511719 608.136719 " clip-rule="nonzero"/></clipPath><clipPath id="2bd2e1bd49"><path d="M 952.511719 608.136719 L 980.773438 636.398438 L 971.976562 645.195312 L 943.714844 616.933594 Z M 952.511719 608.136719 " clip-rule="nonzero"/></clipPath><clipPath id="bd02411975"><path d="M 975 585 L 1006 585 L 1006 614 L 975 614 Z M 975 585 " clip-rule="nonzero"/></clipPath><clipPath id="1a3ccc0522"><path d="M 976.535156 585.03125 L 1005.765625 612.292969 L 997.28125 621.390625 L 968.050781 594.128906 Z M 976.535156 585.03125 " clip-rule="nonzero"/></clipPath><clipPath id="c4d3494801"><path d="M 968.007812 594.175781 L 997.238281 621.4375 L 1005.722656 612.339844 L 976.496094 585.078125 Z M 968.007812 594.175781 " clip-rule="nonzero"/></clipPath><clipPath id="9c42aca614"><path d="M 491.773438 579.753906 L 560.859375 579.753906 L 560.859375 648.839844 L 491.773438 648.839844 Z M 491.773438 579.753906 " clip-rule="nonzero"/></clipPath><clipPath id="07a16d684a"><path d="M 528 615 L 558 615 L 558 644 L 528 644 Z M 528 615 " clip-rule="nonzero"/></clipPath><clipPath id="05e09753ba"><path d="M 520.519531 634.734375 L 549.566406 607.277344 L 558.113281 616.320312 L 529.066406 643.773438 Z M 520.519531 634.734375 " clip-rule="nonzero"/></clipPath><clipPath id="51f706d340"><path d="M 520.519531 634.734375 L 549.566406 607.277344 L 558.113281 616.320312 L 529.066406 643.773438 Z M 520.519531 634.734375 " clip-rule="nonzero"/></clipPath><clipPath id="f9c4e45208"><path d="M 494 585 L 525 585 L 525 614 L 494 614 Z M 494 585 " clip-rule="nonzero"/></clipPath><clipPath id="b573ab880b"><path d="M 494.59375 612.269531 L 523.640625 584.8125 L 532.1875 593.855469 L 503.136719 621.308594 Z M 494.59375 612.269531 " clip-rule="nonzero"/></clipPath><clipPath id="0c41a69c60"><path d="M 532.140625 593.984375 L 503.09375 621.4375 L 494.546875 612.394531 L 523.597656 584.941406 Z M 532.140625 593.984375 " clip-rule="nonzero"/></clipPath><clipPath id="9138006234"><path d="M 496 615 L 526 615 L 526 646 L 496 646 Z M 496 615 " clip-rule="nonzero"/></clipPath><clipPath id="e72001012a"><path d="M 505.023438 608.136719 L 533.285156 636.398438 L 524.488281 645.195312 L 496.226562 616.933594 Z M 505.023438 608.136719 " clip-rule="nonzero"/></clipPath><clipPath id="ef9b38ed71"><path d="M 505.023438 608.136719 L 533.285156 636.398438 L 524.488281 645.195312 L 496.226562 616.933594 Z M 505.023438 608.136719 " clip-rule="nonzero"/></clipPath><clipPath id="9e3c119d14"><path d="M 528 585 L 559 585 L 559 614 L 528 614 Z M 528 585 " clip-rule="nonzero"/></clipPath><clipPath id="f72e4bb3f1"><path d="M 529.046875 585.03125 L 558.277344 612.292969 L 549.789062 621.390625 L 520.5625 594.128906 Z M 529.046875 585.03125 " clip-rule="nonzero"/></clipPath><clipPath id="cb4afe1870"><path d="M 520.519531 594.175781 L 549.75 621.4375 L 558.234375 612.339844 L 529.003906 585.078125 Z M 520.519531 594.175781 " clip-rule="nonzero"/></clipPath><clipPath id="a1a854e1ca"><path d="M 0 44.597656 L 526.550781 44.597656 L 526.550781 1078 L 0 1078 Z M 0 44.597656 " clip-rule="nonzero"/></clipPath><clipPath id="9f19e9df9f"><path d="M 973.339844 44.597656 L 1500 44.597656 L 1500 1078 L 973.339844 1078 Z M 973.339844 44.597656 " clip-rule="nonzero"/></clipPath></defs><g clip-path="url(#3c18131b35)"><g clip-path="url(#82b6adba10)"><path fill="#4a658e" d="M 21.410156 21.410156 L 1478.589844 21.410156 L 1478.589844 1478.589844 L 21.410156 1478.589844 Z M 21.410156 21.410156 " fill-opacity="1" fill-rule="nonzero"/></g></g><g clip-path="url(#fe61a8ee03)"><g clip-path="url(#541e5b90ec)"><path fill="#dca648" d="M 79.320312 1039.09375 L 1421.882812 1039.09375 L 1421.882812 2216.136719 L 79.320312 2216.136719 Z M 79.320312 1039.09375 " fill-opacity="1" fill-rule="nonzero"/></g></g><g clip-path="url(#788aef7699)"><g clip-path="url(#26d1fb7791)"><path fill="#e16136" d="M 180.613281 1101.230469 L 1317.152344 1101.230469 L 1317.152344 1946.71875 L 180.613281 1946.71875 Z M 180.613281 1101.230469 " fill-opacity="1" fill-rule="nonzero"/></g></g><g clip-path="url(#abeec8c22b)"><g clip-path="url(#c8cf441c89)"><path fill="#c72336" d="M 72.570312 1174.015625 L 1148.878906 1174.015625 L 1148.878906 2255.394531 L 72.570312 2255.394531 Z M 72.570312 1174.015625 " fill-opacity="1" fill-rule="nonzero"/></g></g><g clip-path="url(#2c7f5bcc7c)"><path fill="#f3f5f8" d="M 846.941406 365.148438 C 783.75 347.699219 770.605469 334.554688 753.15625 271.386719 C 752.734375 269.863281 751.355469 268.8125 749.765625 268.8125 C 748.175781 268.8125 746.796875 269.863281 746.375 271.386719 C 728.949219 334.554688 715.804688 347.699219 652.636719 365.148438 C 651.113281 365.570312 650.0625 366.949219 650.0625 368.539062 C 650.0625 370.128906 651.113281 371.507812 652.636719 371.929688 C 715.804688 389.378906 728.949219 402.523438 746.398438 465.691406 C 746.820312 467.214844 748.199219 468.265625 749.789062 468.265625 C 751.378906 468.265625 752.757812 467.214844 753.179688 465.691406 C 770.628906 402.523438 783.773438 389.378906 846.941406 371.929688 C 848.464844 371.507812 849.515625 370.128906 849.515625 368.539062 C 849.515625 366.949219 848.464844 365.570312 846.941406 365.148438 Z M 846.941406 365.148438 " fill-opacity="1" fill-rule="nonzero"/></g><g clip-path="url(#231943e526)"><g clip-path="url(#91ee9ac877)"><g clip-path="url(#d2a60379af)"><path fill="#f3f5f8" d="M 840.59375 374.269531 C 830.613281 377.160156 821.019531 381.019531 811.816406 385.84375 C 803.308594 390.410156 795.546875 396.007812 788.535156 402.640625 C 781.53125 409.285156 775.507812 416.722656 770.464844 424.953125 C 765.136719 433.878906 760.738281 443.238281 757.261719 453.03125 C 755.738281 447.523438 755.066406 441.910156 755.238281 436.199219 C 755.410156 430.488281 756.417969 424.925781 758.265625 419.519531 C 759.179688 416.746094 760.261719 414.042969 761.511719 411.402344 C 762.761719 408.765625 764.167969 406.214844 765.734375 403.75 C 767.300781 401.285156 769.011719 398.929688 770.871094 396.679688 C 772.726562 394.425781 774.71875 392.296875 776.839844 390.292969 C 778.960938 388.289062 781.195312 386.421875 783.550781 384.695312 C 785.902344 382.964844 788.351562 381.390625 790.902344 379.964844 C 793.449219 378.539062 796.074219 377.28125 798.777344 376.179688 C 801.484375 375.082031 804.246094 374.152344 807.0625 373.398438 C 812.570312 371.855469 818.179688 371.15625 823.894531 371.304688 C 829.609375 371.453125 835.175781 372.441406 840.59375 374.269531 Z M 840.59375 374.269531 " fill-opacity="1" fill-rule="nonzero"/></g></g></g><g clip-path="url(#e0d08ea0ec)"><g clip-path="url(#52fe9e10f9)"><g clip-path="url(#1b3c41ecc8)"><path fill="#f3f5f8" d="M 659.488281 363.21875 C 669.46875 360.328125 679.0625 356.46875 688.265625 351.640625 C 696.773438 347.078125 704.535156 341.480469 711.546875 334.847656 C 718.550781 328.203125 724.574219 320.765625 729.617188 312.535156 C 734.941406 303.609375 739.34375 294.25 742.820312 284.457031 C 744.339844 289.964844 745.015625 295.574219 744.84375 301.289062 C 744.671875 307 743.660156 312.5625 741.8125 317.96875 C 740.898438 320.742188 739.816406 323.445312 738.570312 326.085938 C 737.320312 328.722656 735.910156 331.273438 734.347656 333.738281 C 732.78125 336.199219 731.070312 338.558594 729.210938 340.808594 C 727.351562 343.0625 725.363281 345.1875 723.242188 347.195312 C 721.121094 349.199219 718.882812 351.066406 716.53125 352.792969 C 714.179688 354.523438 711.726562 356.097656 709.179688 357.523438 C 706.632812 358.945312 704.003906 360.207031 701.300781 361.308594 C 698.597656 362.40625 695.835938 363.332031 693.015625 364.089844 C 687.511719 365.632812 681.902344 366.332031 676.1875 366.183594 C 670.46875 366.03125 664.90625 365.046875 659.488281 363.21875 Z M 659.488281 363.21875 " fill-opacity="1" fill-rule="nonzero"/></g></g></g><g clip-path="url(#974e059c18)"><g clip-path="url(#0aa9e36f33)"><g clip-path="url(#2bce96b6a6)"><path fill="#f3f5f8" d="M 745.019531 456.753906 C 741.851562 446.855469 737.722656 437.375 732.636719 428.3125 C 727.835938 419.9375 722.023438 412.335938 715.191406 405.511719 C 708.355469 398.699219 700.75 392.890625 692.382812 388.078125 C 683.308594 383.007812 673.828125 378.871094 663.941406 375.671875 C 669.40625 373.996094 674.996094 373.164062 680.710938 373.175781 C 686.425781 373.1875 692.011719 374.039062 697.46875 375.734375 C 700.265625 376.570312 703 377.574219 705.671875 378.75 C 708.34375 379.925781 710.933594 381.257812 713.441406 382.753906 C 715.949219 384.25 718.351562 385.894531 720.65625 387.6875 C 722.957031 389.480469 725.140625 391.410156 727.207031 393.476562 C 729.269531 395.539062 731.199219 397.722656 732.992188 400.027344 C 734.785156 402.328125 736.429688 404.734375 737.925781 407.242188 C 739.421875 409.746094 740.757812 412.335938 741.933594 415.007812 C 743.105469 417.679688 744.113281 420.414062 744.949219 423.210938 C 746.644531 428.671875 747.5 434.261719 747.511719 439.976562 C 747.527344 445.695312 746.695312 451.285156 745.019531 456.753906 Z M 745.019531 456.753906 " fill-opacity="1" fill-rule="nonzero"/></g></g></g><g clip-path="url(#6b6352d729)"><g clip-path="url(#06bdb956e4)"><g clip-path="url(#82987708e3)"><path fill="#f3f5f8" d="M 840.941406 363.058594 C 830.941406 360.234375 821.324219 356.4375 812.089844 351.671875 C 803.550781 347.167969 795.753906 341.621094 788.695312 335.03125 C 781.648438 328.433594 775.574219 321.039062 770.476562 312.84375 C 765.09375 303.953125 760.628906 294.621094 757.089844 284.851562 C 755.605469 290.371094 754.96875 295.984375 755.175781 301.695312 C 755.386719 307.40625 756.433594 312.960938 758.316406 318.355469 C 759.25 321.121094 760.351562 323.820312 761.617188 326.449219 C 762.882812 329.078125 764.308594 331.621094 765.890625 334.074219 C 767.472656 336.527344 769.199219 338.875 771.070312 341.113281 C 772.945312 343.351562 774.949219 345.46875 777.082031 347.457031 C 779.21875 349.449219 781.46875 351.300781 783.832031 353.011719 C 786.195312 354.726562 788.65625 356.285156 791.214844 357.691406 C 793.769531 359.097656 796.40625 360.34375 799.117188 361.425781 C 801.828125 362.503906 804.597656 363.414062 807.421875 364.152344 C 812.9375 365.660156 818.550781 366.320312 824.265625 366.132812 C 829.976562 365.945312 835.539062 364.921875 840.941406 363.058594 Z M 840.941406 363.058594 " fill-opacity="1" fill-rule="nonzero"/></g></g></g><g clip-path="url(#d9ad3cac77)"><path fill="#f3f5f8" d="M 821.4375 711.171875 C 774.398438 698.1875 764.613281 688.402344 751.625 641.378906 C 751.3125 640.25 750.285156 639.464844 749.101562 639.464844 C 747.917969 639.464844 746.890625 640.25 746.578125 641.378906 C 733.609375 688.402344 723.824219 698.1875 676.800781 711.171875 C 675.671875 711.488281 674.886719 712.515625 674.886719 713.699219 C 674.886719 714.882812 675.671875 715.910156 676.800781 716.222656 C 723.824219 729.210938 733.609375 738.992188 746.59375 786.015625 C 746.910156 787.148438 747.9375 787.929688 749.121094 787.929688 C 750.304688 787.929688 751.332031 787.148438 751.644531 786.015625 C 764.632812 738.992188 774.414062 729.210938 821.4375 716.222656 C 822.570312 715.910156 823.351562 714.882812 823.351562 713.699219 C 823.351562 712.515625 822.570312 711.488281 821.4375 711.171875 Z M 821.4375 711.171875 " fill-opacity="1" fill-rule="nonzero"/></g><g clip-path="url(#fdc52ae03b)"><g clip-path="url(#836cc38a65)"><g clip-path="url(#9e9563b0fc)"><path fill="#f3f5f8" d="M 817.101562 718.40625 C 809.648438 720.542969 802.484375 723.402344 795.617188 726.988281 C 789.269531 730.378906 783.484375 734.546875 778.257812 739.488281 C 773.039062 744.441406 768.554688 749.984375 764.808594 756.128906 C 760.847656 762.789062 757.582031 769.777344 755.007812 777.089844 C 753.859375 772.96875 753.339844 768.769531 753.453125 764.5 C 753.566406 760.226562 754.308594 756.070312 755.675781 752.03125 C 756.351562 749.960938 757.152344 747.941406 758.082031 745.972656 C 759.007812 744.003906 760.054688 742.097656 761.21875 740.261719 C 762.382812 738.421875 763.65625 736.664062 765.039062 734.984375 C 766.421875 733.304688 767.902344 731.71875 769.484375 730.226562 C 771.066406 728.730469 772.734375 727.339844 774.488281 726.054688 C 776.242188 724.769531 778.070312 723.597656 779.96875 722.539062 C 781.871094 721.480469 783.832031 720.542969 785.847656 719.726562 C 787.867188 718.914062 789.929688 718.226562 792.035156 717.667969 C 796.148438 716.527344 800.339844 716.019531 804.609375 716.148438 C 808.882812 716.273438 813.046875 717.027344 817.101562 718.40625 Z M 817.101562 718.40625 " fill-opacity="1" fill-rule="nonzero"/></g></g></g><g clip-path="url(#163d4a60aa)"><g clip-path="url(#ccc9669652)"><g clip-path="url(#8be69f0d73)"><path fill="#f3f5f8" d="M 682.144531 710.191406 C 689.601562 708.054688 696.761719 705.191406 703.628906 701.609375 C 709.976562 698.21875 715.761719 694.050781 720.988281 689.105469 C 726.207031 684.15625 730.691406 678.609375 734.441406 672.46875 C 738.398438 665.808594 741.664062 658.820312 744.238281 651.503906 C 745.386719 655.628906 745.90625 659.828125 745.792969 664.097656 C 745.679688 668.367188 744.9375 672.523438 743.570312 676.5625 C 742.894531 678.632812 742.09375 680.65625 741.164062 682.625 C 740.238281 684.59375 739.191406 686.496094 738.027344 688.335938 C 736.863281 690.175781 735.589844 691.933594 734.207031 693.613281 C 732.824219 695.289062 731.34375 696.878906 729.761719 698.371094 C 728.183594 699.863281 726.515625 701.253906 724.761719 702.542969 C 723.007812 703.828125 721.179688 705 719.277344 706.058594 C 717.375 707.117188 715.417969 708.054688 713.398438 708.867188 C 711.378906 709.683594 709.316406 710.371094 707.210938 710.929688 C 703.101562 712.070312 698.910156 712.574219 694.636719 712.449219 C 690.363281 712.324219 686.199219 711.570312 682.144531 710.191406 Z M 682.144531 710.191406 " fill-opacity="1" fill-rule="nonzero"/></g></g></g><g clip-path="url(#9e690ce91f)"><g clip-path="url(#b240031478)"><g clip-path="url(#fc011289e7)"><path fill="#f3f5f8" d="M 745.011719 779 C 742.664062 771.609375 739.601562 764.53125 735.824219 757.765625 C 732.257812 751.515625 727.929688 745.851562 722.839844 740.765625 C 717.746094 735.6875 712.074219 731.363281 705.828125 727.789062 C 699.058594 724.019531 691.980469 720.953125 684.597656 718.585938 C 688.6875 717.320312 692.867188 716.683594 697.140625 716.675781 C 701.414062 716.671875 705.589844 717.292969 709.664062 718.546875 C 711.753906 719.164062 713.796875 719.910156 715.789062 720.78125 C 717.785156 721.652344 719.71875 722.644531 721.589844 723.753906 C 723.457031 724.867188 725.253906 726.089844 726.96875 727.425781 C 728.6875 728.757812 730.316406 730.195312 731.851562 731.734375 C 733.390625 733.273438 734.828125 734.898438 736.160156 736.617188 C 737.496094 738.335938 738.71875 740.128906 739.832031 742 C 740.945312 743.867188 741.933594 745.800781 742.808594 747.796875 C 743.679688 749.792969 744.421875 751.832031 745.039062 753.921875 C 746.296875 758 746.921875 762.175781 746.914062 766.449219 C 746.910156 770.722656 746.273438 774.90625 745.011719 779 Z M 745.011719 779 " fill-opacity="1" fill-rule="nonzero"/></g></g></g><g clip-path="url(#17d4442322)"><g clip-path="url(#3c151e7820)"><g clip-path="url(#b1983c0660)"><path fill="#f3f5f8" d="M 815.859375 709.320312 C 808.390625 707.234375 801.210938 704.421875 794.320312 700.882812 C 787.949219 697.53125 782.136719 693.40625 776.878906 688.496094 C 771.628906 683.582031 767.109375 678.066406 763.316406 671.949219 C 759.316406 665.3125 756.003906 658.347656 753.378906 651.050781 C 752.257812 655.179688 751.765625 659.382812 751.910156 663.652344 C 752.050781 667.921875 752.820312 672.074219 754.214844 676.101562 C 754.902344 678.167969 755.71875 680.183594 756.660156 682.148438 C 757.601562 684.109375 758.65625 686.007812 759.835938 687.839844 C 761.011719 689.667969 762.296875 691.417969 763.691406 693.089844 C 765.082031 694.757812 766.574219 696.335938 768.167969 697.816406 C 769.757812 699.300781 771.433594 700.679688 773.195312 701.957031 C 774.960938 703.230469 776.792969 704.390625 778.703125 705.4375 C 780.609375 706.480469 782.578125 707.40625 784.601562 708.207031 C 786.625 709.007812 788.691406 709.679688 790.800781 710.226562 C 794.917969 711.339844 799.113281 711.816406 803.386719 711.664062 C 807.65625 711.507812 811.816406 710.730469 815.859375 709.320312 Z M 815.859375 709.320312 " fill-opacity="1" fill-rule="nonzero"/></g></g></g><g clip-path="url(#11e241b5de)"><path fill="#f3f5f8" d="M 1199.449219 907.65625 C 1164.960938 898.136719 1157.785156 890.960938 1148.265625 856.488281 C 1148.035156 855.660156 1147.28125 855.082031 1146.414062 855.082031 C 1145.546875 855.082031 1144.792969 855.660156 1144.5625 856.488281 C 1135.054688 890.960938 1127.882812 898.136719 1093.40625 907.65625 C 1092.578125 907.886719 1092.003906 908.640625 1092.003906 909.507812 C 1092.003906 910.375 1092.578125 911.128906 1093.40625 911.359375 C 1127.882812 920.878906 1135.054688 928.054688 1144.578125 962.527344 C 1144.804688 963.359375 1145.558594 963.933594 1146.425781 963.933594 C 1147.296875 963.933594 1148.046875 963.359375 1148.277344 962.527344 C 1157.800781 928.054688 1164.972656 920.878906 1199.449219 911.359375 C 1200.277344 911.128906 1200.851562 910.375 1200.851562 909.507812 C 1200.851562 908.640625 1200.277344 907.886719 1199.449219 907.65625 Z M 1199.449219 907.65625 " fill-opacity="1" fill-rule="nonzero"/></g><g clip-path="url(#b72490f8ec)"><g clip-path="url(#d778d2affd)"><g clip-path="url(#6fd310807d)"><path fill="#f3f5f8" d="M 1196.308594 912.519531 C 1190.839844 914.121094 1185.585938 916.253906 1180.542969 918.910156 C 1175.882812 921.421875 1171.625 924.5 1167.773438 928.140625 C 1163.929688 931.789062 1160.621094 935.867188 1157.84375 940.375 C 1154.914062 945.265625 1152.488281 950.394531 1150.5625 955.753906 C 1149.746094 952.746094 1149.386719 949.679688 1149.492188 946.558594 C 1149.601562 943.433594 1150.164062 940.394531 1151.1875 937.433594 C 1151.691406 935.914062 1152.289062 934.433594 1152.980469 932.988281 C 1153.667969 931.546875 1154.445312 930.148438 1155.304688 928.796875 C 1156.167969 927.449219 1157.109375 926.15625 1158.128906 924.921875 C 1159.148438 923.6875 1160.242188 922.519531 1161.40625 921.417969 C 1162.570312 920.316406 1163.796875 919.292969 1165.089844 918.34375 C 1166.378906 917.394531 1167.722656 916.527344 1169.117188 915.742188 C 1170.515625 914.957031 1171.953125 914.261719 1173.4375 913.65625 C 1174.917969 913.050781 1176.429688 912.535156 1177.972656 912.117188 C 1180.988281 911.261719 1184.054688 910.867188 1187.179688 910.9375 C 1190.304688 911.003906 1193.347656 911.535156 1196.308594 912.519531 Z M 1196.308594 912.519531 " fill-opacity="1" fill-rule="nonzero"/></g></g></g><g clip-path="url(#40cbfb8604)"><g clip-path="url(#c60c2981be)"><g clip-path="url(#248d50ef96)"><path fill="#f3f5f8" d="M 1096.621094 906.714844 C 1102.085938 905.113281 1107.339844 902.980469 1112.382812 900.324219 C 1117.046875 897.8125 1121.300781 894.734375 1125.152344 891.09375 C 1128.996094 887.445312 1132.304688 883.367188 1135.082031 878.859375 C 1138.015625 873.96875 1140.441406 868.839844 1142.363281 863.480469 C 1143.183594 866.488281 1143.539062 869.554688 1143.433594 872.675781 C 1143.328125 875.800781 1142.761719 878.839844 1141.742188 881.800781 C 1141.234375 883.320312 1140.636719 884.800781 1139.949219 886.246094 C 1139.257812 887.6875 1138.484375 889.085938 1137.621094 890.4375 C 1136.761719 891.785156 1135.820312 893.078125 1134.800781 894.3125 C 1133.777344 895.546875 1132.683594 896.714844 1131.519531 897.816406 C 1130.355469 898.917969 1129.128906 899.941406 1127.839844 900.890625 C 1126.546875 901.84375 1125.203125 902.707031 1123.808594 903.492188 C 1122.410156 904.277344 1120.972656 904.972656 1119.492188 905.578125 C 1118.011719 906.183594 1116.5 906.699219 1114.953125 907.117188 C 1111.941406 907.972656 1108.871094 908.367188 1105.746094 908.296875 C 1102.621094 908.230469 1099.578125 907.699219 1096.621094 906.714844 Z M 1096.621094 906.714844 " fill-opacity="1" fill-rule="nonzero"/></g></g></g><g clip-path="url(#be48b204f3)"><g clip-path="url(#e1c1fe4363)"><g clip-path="url(#b8b4971897)"><path fill="#f3f5f8" d="M 1143.742188 957.964844 C 1141.988281 952.546875 1139.710938 947.355469 1136.910156 942.386719 C 1134.269531 937.796875 1131.070312 933.628906 1127.324219 929.886719 C 1123.570312 926.144531 1119.398438 922.953125 1114.8125 920.304688 C 1109.84375 917.511719 1104.648438 915.230469 1099.238281 913.457031 C 1102.21875 912.554688 1105.273438 912.113281 1108.398438 912.128906 C 1111.523438 912.148438 1114.582031 912.625 1117.566406 913.566406 C 1119.097656 914.027344 1120.597656 914.582031 1122.058594 915.230469 C 1123.523438 915.878906 1124.941406 916.613281 1126.316406 917.4375 C 1127.691406 918.261719 1129.007812 919.164062 1130.273438 920.152344 C 1131.535156 921.136719 1132.734375 922.195312 1133.867188 923.328125 C 1135 924.460938 1136.058594 925.660156 1137.042969 926.921875 C 1138.027344 928.1875 1138.933594 929.503906 1139.757812 930.878906 C 1140.578125 932.253906 1141.316406 933.671875 1141.964844 935.136719 C 1142.613281 936.597656 1143.167969 938.09375 1143.628906 939.625 C 1144.570312 942.613281 1145.050781 945.671875 1145.070312 948.796875 C 1145.089844 951.925781 1144.644531 954.980469 1143.742188 957.964844 Z M 1143.742188 957.964844 " fill-opacity="1" fill-rule="nonzero"/></g></g></g><g clip-path="url(#00a28fcb96)"><g clip-path="url(#d987a58fb8)"><g clip-path="url(#68ac34a4d6)"><path fill="#f3f5f8" d="M 1196.5 906.625 C 1191.023438 905.058594 1185.753906 902.964844 1180.695312 900.339844 C 1176.015625 897.859375 1171.738281 894.808594 1167.863281 891.195312 C 1163.996094 887.574219 1160.660156 883.515625 1157.851562 879.023438 C 1154.890625 874.15625 1152.429688 869.042969 1150.46875 863.695312 C 1149.671875 866.710938 1149.335938 869.777344 1149.460938 872.898438 C 1149.589844 876.023438 1150.171875 879.058594 1151.214844 882.011719 C 1151.730469 883.527344 1152.339844 885.003906 1153.035156 886.445312 C 1153.734375 887.882812 1154.519531 889.277344 1155.390625 890.621094 C 1156.261719 891.964844 1157.210938 893.25 1158.238281 894.480469 C 1159.269531 895.707031 1160.367188 896.867188 1161.539062 897.960938 C 1162.710938 899.054688 1163.945312 900.070312 1165.242188 901.011719 C 1166.539062 901.953125 1167.890625 902.808594 1169.289062 903.585938 C 1170.691406 904.359375 1172.136719 905.046875 1173.621094 905.640625 C 1175.105469 906.238281 1176.621094 906.742188 1178.167969 907.152344 C 1181.1875 907.988281 1184.261719 908.359375 1187.382812 908.269531 C 1190.507812 908.179688 1193.546875 907.632812 1196.5 906.625 Z M 1196.5 906.625 " fill-opacity="1" fill-rule="nonzero"/></g></g></g><g clip-path="url(#632348787d)"><path fill="#f3f5f8" d="M 406.59375 907.65625 C 372.105469 898.136719 364.933594 890.960938 355.410156 856.488281 C 355.179688 855.660156 354.429688 855.082031 353.558594 855.082031 C 352.691406 855.082031 351.9375 855.660156 351.710938 856.488281 C 342.199219 890.960938 335.027344 898.136719 300.554688 907.65625 C 299.722656 907.886719 299.148438 908.640625 299.148438 909.507812 C 299.148438 910.375 299.722656 911.128906 300.554688 911.359375 C 335.027344 920.878906 342.199219 928.054688 351.722656 962.527344 C 351.953125 963.359375 352.707031 963.933594 353.574219 963.933594 C 354.441406 963.933594 355.195312 963.359375 355.425781 962.527344 C 364.945312 928.054688 372.117188 920.878906 406.59375 911.359375 C 407.421875 911.128906 407.996094 910.375 407.996094 909.507812 C 407.996094 908.640625 407.421875 907.886719 406.59375 907.65625 Z M 406.59375 907.65625 " fill-opacity="1" fill-rule="nonzero"/></g><g clip-path="url(#e12c9e551b)"><g clip-path="url(#e62900a14a)"><g clip-path="url(#5b4a3ed622)"><path fill="#f3f5f8" d="M 403.453125 912.519531 C 397.988281 914.121094 392.734375 916.253906 387.6875 918.910156 C 383.027344 921.421875 378.769531 924.5 374.921875 928.140625 C 371.078125 931.789062 367.765625 935.867188 364.992188 940.375 C 362.058594 945.265625 359.632812 950.394531 357.710938 955.753906 C 356.890625 952.746094 356.535156 949.679688 356.640625 946.558594 C 356.746094 943.433594 357.308594 940.394531 358.332031 937.433594 C 358.839844 935.914062 359.4375 934.433594 360.125 932.988281 C 360.8125 931.546875 361.589844 930.148438 362.449219 928.796875 C 363.3125 927.449219 364.253906 926.15625 365.273438 924.921875 C 366.292969 923.6875 367.386719 922.519531 368.550781 921.417969 C 369.714844 920.316406 370.945312 919.292969 372.234375 918.34375 C 373.523438 917.394531 374.867188 916.527344 376.265625 915.742188 C 377.660156 914.957031 379.101562 914.261719 380.582031 913.65625 C 382.0625 913.050781 383.574219 912.535156 385.117188 912.117188 C 388.132812 911.261719 391.203125 910.867188 394.328125 910.9375 C 397.453125 911.003906 400.492188 911.535156 403.453125 912.519531 Z M 403.453125 912.519531 " fill-opacity="1" fill-rule="nonzero"/></g></g></g><g clip-path="url(#f699ad67b5)"><g clip-path="url(#9f8309994c)"><g clip-path="url(#6a2c28868b)"><path fill="#f3f5f8" d="M 303.765625 906.714844 C 309.230469 905.113281 314.484375 902.980469 319.53125 900.324219 C 324.191406 897.8125 328.449219 894.734375 332.296875 891.09375 C 336.140625 887.445312 339.453125 883.367188 342.226562 878.859375 C 345.160156 873.96875 347.585938 868.839844 349.507812 863.480469 C 350.328125 866.488281 350.683594 869.554688 350.578125 872.675781 C 350.472656 875.800781 349.910156 878.839844 348.886719 881.800781 C 348.378906 883.320312 347.78125 884.800781 347.09375 886.246094 C 346.40625 887.6875 345.628906 889.085938 344.769531 890.4375 C 343.90625 891.785156 342.964844 893.078125 341.945312 894.3125 C 340.921875 895.546875 339.832031 896.714844 338.667969 897.816406 C 337.503906 898.917969 336.273438 899.941406 334.984375 900.890625 C 333.695312 901.84375 332.351562 902.707031 330.953125 903.492188 C 329.558594 904.277344 328.117188 904.972656 326.636719 905.578125 C 325.15625 906.183594 323.644531 906.699219 322.101562 907.117188 C 319.085938 907.972656 316.015625 908.367188 312.890625 908.296875 C 309.765625 908.230469 306.726562 907.699219 303.765625 906.714844 Z M 303.765625 906.714844 " fill-opacity="1" fill-rule="nonzero"/></g></g></g><g clip-path="url(#9aaaf3e0b3)"><g clip-path="url(#19fbffc1fd)"><g clip-path="url(#fa6b459340)"><path fill="#f3f5f8" d="M 350.886719 957.964844 C 349.132812 952.546875 346.855469 947.355469 344.058594 942.386719 C 341.414062 937.796875 338.21875 933.628906 334.46875 929.886719 C 330.714844 926.144531 326.546875 922.953125 321.960938 920.304688 C 316.988281 917.511719 311.796875 915.230469 306.382812 913.457031 C 309.367188 912.554688 312.421875 912.113281 315.546875 912.128906 C 318.667969 912.148438 321.726562 912.625 324.714844 913.566406 C 326.246094 914.027344 327.742188 914.582031 329.207031 915.230469 C 330.667969 915.878906 332.089844 916.613281 333.460938 917.4375 C 334.835938 918.261719 336.152344 919.164062 337.417969 920.152344 C 338.679688 921.136719 339.878906 922.195312 341.011719 923.328125 C 342.144531 924.460938 343.203125 925.660156 344.1875 926.921875 C 345.175781 928.1875 346.078125 929.503906 346.902344 930.878906 C 347.726562 932.253906 348.460938 933.671875 349.109375 935.136719 C 349.757812 936.597656 350.3125 938.09375 350.777344 939.625 C 351.714844 942.613281 352.195312 945.671875 352.214844 948.796875 C 352.234375 951.925781 351.792969 954.980469 350.886719 957.964844 Z M 350.886719 957.964844 " fill-opacity="1" fill-rule="nonzero"/></g></g></g><g clip-path="url(#ef89f23d7f)"><g clip-path="url(#59f3482034)"><g clip-path="url(#fe0ad0768c)"><path fill="#f3f5f8" d="M 403.644531 906.625 C 398.167969 905.058594 392.902344 902.964844 387.839844 900.339844 C 383.160156 897.859375 378.882812 894.808594 375.011719 891.195312 C 371.140625 887.574219 367.804688 883.515625 365 879.023438 C 362.035156 874.15625 359.574219 869.042969 357.617188 863.695312 C 356.816406 866.710938 356.480469 869.777344 356.605469 872.898438 C 356.734375 876.023438 357.320312 879.058594 358.359375 882.011719 C 358.875 883.527344 359.484375 885.003906 360.183594 886.445312 C 360.882812 887.882812 361.664062 889.277344 362.535156 890.621094 C 363.40625 891.964844 364.355469 893.25 365.386719 894.480469 C 366.414062 895.707031 367.515625 896.867188 368.6875 897.960938 C 369.859375 899.054688 371.09375 900.070312 372.390625 901.011719 C 373.6875 901.953125 375.035156 902.808594 376.4375 903.585938 C 377.839844 904.359375 379.28125 905.046875 380.765625 905.640625 C 382.253906 906.238281 383.769531 906.742188 385.3125 907.152344 C 388.332031 907.988281 391.40625 908.359375 394.53125 908.269531 C 397.65625 908.179688 400.691406 907.632812 403.644531 906.625 Z M 403.644531 906.625 " fill-opacity="1" fill-rule="nonzero"/></g></g></g><g clip-path="url(#9faeca2cd6)"><path fill="#f3f5f8" d="M 641.835938 908.105469 C 619.953125 902.0625 615.402344 897.511719 609.359375 875.636719 C 609.214844 875.109375 608.734375 874.742188 608.1875 874.742188 C 607.636719 874.742188 607.15625 875.109375 607.011719 875.636719 C 600.976562 897.511719 596.425781 902.0625 574.550781 908.105469 C 574.023438 908.25 573.660156 908.726562 573.660156 909.277344 C 573.660156 909.828125 574.023438 910.308594 574.550781 910.453125 C 596.425781 916.496094 600.976562 921.046875 607.019531 942.921875 C 607.164062 943.449219 607.644531 943.8125 608.195312 943.8125 C 608.746094 943.8125 609.222656 943.449219 609.367188 942.921875 C 615.410156 921.046875 619.960938 916.496094 641.835938 910.453125 C 642.363281 910.308594 642.726562 909.828125 642.726562 909.277344 C 642.726562 908.726562 642.363281 908.25 641.835938 908.105469 Z M 641.835938 908.105469 " fill-opacity="1" fill-rule="nonzero"/></g><g clip-path="url(#7852c327a6)"><g clip-path="url(#1db3f705f1)"><g clip-path="url(#14af54d162)"><path fill="#f3f5f8" d="M 639.84375 911.191406 C 636.375 912.207031 633.042969 913.558594 629.839844 915.246094 C 626.882812 916.839844 624.183594 918.792969 621.738281 921.101562 C 619.300781 923.417969 617.199219 926.003906 615.4375 928.867188 C 613.578125 931.96875 612.039062 935.222656 610.816406 938.625 C 610.296875 936.714844 610.070312 934.769531 610.140625 932.789062 C 610.207031 930.804688 610.566406 928.875 611.214844 926.996094 C 611.859375 925.066406 612.730469 923.238281 613.828125 921.519531 C 614.925781 919.796875 616.214844 918.238281 617.699219 916.835938 C 619.183594 915.433594 620.8125 914.234375 622.59375 913.234375 C 624.371094 912.234375 626.242188 911.46875 628.210938 910.933594 C 630.121094 910.390625 632.070312 910.140625 634.054688 910.183594 C 636.035156 910.230469 637.964844 910.5625 639.84375 911.191406 Z M 639.84375 911.191406 " fill-opacity="1" fill-rule="nonzero"/></g></g></g><g clip-path="url(#158dfbdca3)"><g clip-path="url(#a9c9f19737)"><g clip-path="url(#f9a33fe849)"><path fill="#f3f5f8" d="M 576.589844 907.503906 C 580.058594 906.488281 583.390625 905.136719 586.589844 903.449219 C 589.550781 901.855469 592.25 899.902344 594.695312 897.59375 C 597.132812 895.277344 599.234375 892.691406 600.996094 889.828125 C 602.855469 886.726562 604.394531 883.472656 605.613281 880.070312 C 606.136719 881.980469 606.359375 883.925781 606.292969 885.90625 C 606.226562 887.890625 605.867188 889.820312 605.21875 891.699219 C 604.574219 893.628906 603.703125 895.457031 602.605469 897.175781 C 601.507812 898.898438 600.21875 900.457031 598.734375 901.859375 C 597.25 903.261719 595.621094 904.460938 593.839844 905.460938 C 592.0625 906.460938 590.1875 907.226562 588.222656 907.761719 C 586.3125 908.304688 584.363281 908.554688 582.378906 908.511719 C 580.398438 908.464844 578.464844 908.132812 576.589844 907.503906 Z M 576.589844 907.503906 " fill-opacity="1" fill-rule="nonzero"/></g></g></g><g clip-path="url(#e953d34af6)"><g clip-path="url(#5f1530b1ec)"><g clip-path="url(#b56615f3db)"><path fill="#f3f5f8" d="M 606.488281 940.027344 C 605.375 936.589844 603.929688 933.292969 602.15625 930.140625 C 600.476562 927.230469 598.449219 924.585938 596.070312 922.207031 C 593.6875 919.835938 591.042969 917.808594 588.132812 916.128906 C 584.980469 914.355469 581.683594 912.910156 578.25 911.785156 C 580.140625 911.210938 582.082031 910.929688 584.0625 910.941406 C 586.046875 910.953125 587.984375 911.257812 589.882812 911.851562 C 591.832031 912.441406 593.683594 913.261719 595.433594 914.308594 C 597.183594 915.359375 598.777344 916.605469 600.222656 918.046875 C 601.667969 919.492188 602.914062 921.089844 603.960938 922.839844 C 605.007812 924.589844 605.828125 926.4375 606.417969 928.390625 C 607.015625 930.285156 607.320312 932.226562 607.332031 934.210938 C 607.34375 936.191406 607.0625 938.132812 606.488281 940.027344 Z M 606.488281 940.027344 " fill-opacity="1" fill-rule="nonzero"/></g></g></g><g clip-path="url(#2f7fdda202)"><g clip-path="url(#2748cffaf4)"><g clip-path="url(#5b4d796767)"><path fill="#f3f5f8" d="M 639.964844 907.449219 C 636.492188 906.457031 633.148438 905.125 629.9375 903.460938 C 626.96875 901.886719 624.253906 899.953125 621.796875 897.65625 C 619.34375 895.359375 617.222656 892.785156 615.445312 889.9375 C 613.5625 886.84375 612 883.601562 610.757812 880.207031 C 610.25 882.121094 610.039062 884.066406 610.117188 886.050781 C 610.199219 888.03125 610.570312 889.957031 611.230469 891.832031 C 611.890625 893.761719 612.773438 895.582031 613.882812 897.292969 C 614.988281 899.007812 616.289062 900.558594 617.785156 901.949219 C 619.277344 903.34375 620.914062 904.53125 622.703125 905.519531 C 624.488281 906.507812 626.363281 907.261719 628.335938 907.78125 C 630.25 908.3125 632.199219 908.550781 634.183594 908.492188 C 636.164062 908.4375 638.09375 908.089844 639.964844 907.449219 Z M 639.964844 907.449219 " fill-opacity="1" fill-rule="nonzero"/></g></g></g><g clip-path="url(#f1422fe865)"><path fill="#f3f5f8" d="M 925.152344 908.105469 C 903.269531 902.0625 898.71875 897.511719 892.675781 875.636719 C 892.53125 875.109375 892.050781 874.742188 891.5 874.742188 C 890.949219 874.742188 890.472656 875.109375 890.328125 875.636719 C 884.292969 897.511719 879.742188 902.0625 857.867188 908.105469 C 857.339844 908.25 856.976562 908.726562 856.976562 909.277344 C 856.976562 909.828125 857.339844 910.308594 857.867188 910.453125 C 879.742188 916.496094 884.292969 921.046875 890.335938 942.921875 C 890.480469 943.449219 890.957031 943.8125 891.507812 943.8125 C 892.058594 943.8125 892.539062 943.449219 892.683594 942.921875 C 898.726562 921.046875 903.277344 916.496094 925.152344 910.453125 C 925.679688 910.308594 926.042969 909.828125 926.042969 909.277344 C 926.042969 908.726562 925.679688 908.25 925.152344 908.105469 Z M 925.152344 908.105469 " fill-opacity="1" fill-rule="nonzero"/></g><g clip-path="url(#a57f18c900)"><g clip-path="url(#9f940be072)"><g clip-path="url(#3511684d87)"><path fill="#f3f5f8" d="M 923.160156 911.191406 C 919.691406 912.207031 916.359375 913.558594 913.15625 915.246094 C 910.199219 916.839844 907.496094 918.792969 905.054688 921.101562 C 902.617188 923.417969 900.515625 926.003906 898.753906 928.867188 C 896.894531 931.96875 895.355469 935.222656 894.132812 938.625 C 893.613281 936.714844 893.386719 934.769531 893.453125 932.789062 C 893.523438 930.804688 893.878906 928.875 894.527344 926.996094 C 895.171875 925.066406 896.042969 923.238281 897.140625 921.519531 C 898.238281 919.796875 899.53125 918.238281 901.015625 916.835938 C 902.496094 915.433594 904.128906 914.234375 905.90625 913.234375 C 907.6875 912.234375 909.558594 911.46875 911.527344 910.933594 C 913.4375 910.390625 915.386719 910.140625 917.367188 910.183594 C 919.351562 910.230469 921.28125 910.5625 923.160156 911.191406 Z M 923.160156 911.191406 " fill-opacity="1" fill-rule="nonzero"/></g></g></g><g clip-path="url(#361cd8cfb6)"><g clip-path="url(#9cdd9b1246)"><g clip-path="url(#6a27d853eb)"><path fill="#f3f5f8" d="M 859.90625 907.503906 C 863.371094 906.488281 866.707031 905.136719 869.90625 903.449219 C 872.867188 901.855469 875.566406 899.902344 878.007812 897.59375 C 880.449219 895.277344 882.546875 892.691406 884.308594 889.828125 C 886.171875 886.726562 887.710938 883.472656 888.929688 880.070312 C 889.449219 881.980469 889.675781 883.925781 889.609375 885.90625 C 889.542969 887.890625 889.183594 889.820312 888.535156 891.699219 C 887.890625 893.628906 887.019531 895.457031 885.921875 897.175781 C 884.824219 898.898438 883.535156 900.457031 882.050781 901.859375 C 880.566406 903.261719 878.9375 904.460938 877.15625 905.460938 C 875.378906 906.460938 873.503906 907.226562 871.539062 907.761719 C 869.625 908.304688 867.679688 908.554688 865.695312 908.511719 C 863.710938 908.464844 861.78125 908.132812 859.90625 907.503906 Z M 859.90625 907.503906 " fill-opacity="1" fill-rule="nonzero"/></g></g></g><g clip-path="url(#c048e5921d)"><g clip-path="url(#c911c15c7b)"><g clip-path="url(#2f3362ee67)"><path fill="#f3f5f8" d="M 889.804688 940.027344 C 888.691406 936.589844 887.246094 933.292969 885.46875 930.140625 C 883.792969 927.230469 881.765625 924.585938 879.386719 922.207031 C 877.003906 919.835938 874.359375 917.808594 871.449219 916.128906 C 868.292969 914.355469 865 912.910156 861.566406 911.785156 C 863.457031 911.210938 865.394531 910.929688 867.378906 910.941406 C 869.363281 910.953125 871.300781 911.257812 873.195312 911.851562 C 875.148438 912.441406 876.996094 913.261719 878.746094 914.308594 C 880.496094 915.359375 882.09375 916.605469 883.539062 918.046875 C 884.980469 919.492188 886.226562 921.089844 887.277344 922.839844 C 888.324219 924.589844 889.144531 926.4375 889.734375 928.390625 C 890.332031 930.285156 890.636719 932.226562 890.648438 934.210938 C 890.660156 936.191406 890.378906 938.132812 889.804688 940.027344 Z M 889.804688 940.027344 " fill-opacity="1" fill-rule="nonzero"/></g></g></g><g clip-path="url(#c0b556c300)"><g clip-path="url(#de1ab95b04)"><g clip-path="url(#04d095f233)"><path fill="#f3f5f8" d="M 923.28125 907.449219 C 919.808594 906.457031 916.464844 905.125 913.253906 903.460938 C 910.285156 901.886719 907.570312 899.953125 905.113281 897.65625 C 902.65625 895.359375 900.539062 892.785156 898.757812 889.9375 C 896.878906 886.84375 895.316406 883.601562 894.074219 880.207031 C 893.566406 882.121094 893.355469 884.066406 893.433594 886.050781 C 893.515625 888.03125 893.886719 889.957031 894.546875 891.832031 C 895.203125 893.761719 896.085938 895.582031 897.195312 897.292969 C 898.304688 899.007812 899.605469 900.558594 901.097656 901.949219 C 902.59375 903.34375 904.230469 904.53125 906.015625 905.519531 C 907.800781 906.507812 909.679688 907.261719 911.648438 907.78125 C 913.566406 908.3125 915.515625 908.550781 917.5 908.492188 C 919.480469 908.4375 921.410156 908.089844 923.28125 907.449219 Z M 923.28125 907.449219 " fill-opacity="1" fill-rule="nonzero"/></g></g></g><g clip-path="url(#e227426beb)"><path fill="#f3f5f8" d="M 1007.441406 613.113281 C 985.558594 607.070312 981.003906 602.519531 974.964844 580.644531 C 974.816406 580.117188 974.339844 579.753906 973.789062 579.753906 C 973.238281 579.753906 972.761719 580.117188 972.613281 580.644531 C 966.582031 602.519531 962.03125 607.070312 940.152344 613.113281 C 939.628906 613.257812 939.261719 613.738281 939.261719 614.289062 C 939.261719 614.839844 939.628906 615.316406 940.152344 615.460938 C 962.03125 621.503906 966.582031 626.054688 972.625 647.929688 C 972.769531 648.457031 973.246094 648.824219 973.796875 648.824219 C 974.347656 648.824219 974.824219 648.457031 974.972656 647.929688 C 981.015625 626.054688 985.566406 621.503906 1007.441406 615.460938 C 1007.96875 615.316406 1008.332031 614.839844 1008.332031 614.289062 C 1008.332031 613.738281 1007.96875 613.257812 1007.441406 613.113281 Z M 1007.441406 613.113281 " fill-opacity="1" fill-rule="nonzero"/></g><g clip-path="url(#6009861d2e)"><g clip-path="url(#6619f7eb81)"><g clip-path="url(#39a23f2146)"><path fill="#f3f5f8" d="M 1005.449219 616.199219 C 1001.980469 617.214844 998.644531 618.566406 995.445312 620.253906 C 992.488281 621.847656 989.785156 623.800781 987.34375 626.113281 C 984.902344 628.425781 982.804688 631.015625 981.042969 633.875 C 979.183594 636.980469 977.640625 640.230469 976.421875 643.632812 C 975.902344 641.726562 975.675781 639.78125 975.742188 637.796875 C 975.8125 635.816406 976.167969 633.886719 976.816406 632.007812 C 977.460938 630.074219 978.332031 628.25 979.429688 626.527344 C 980.527344 624.808594 981.820312 623.246094 983.300781 621.84375 C 984.785156 620.441406 986.417969 619.242188 988.195312 618.242188 C 989.976562 617.246094 991.847656 616.476562 993.8125 615.945312 C 995.726562 615.402344 997.675781 615.152344 999.65625 615.195312 C 1001.640625 615.238281 1003.570312 615.574219 1005.449219 616.199219 Z M 1005.449219 616.199219 " fill-opacity="1" fill-rule="nonzero"/></g></g></g><g clip-path="url(#b78da86f1d)"><g clip-path="url(#47cf7e843e)"><g clip-path="url(#a596da56cb)"><path fill="#f3f5f8" d="M 942.191406 612.515625 C 945.660156 611.5 948.996094 610.148438 952.195312 608.460938 C 955.152344 606.867188 957.855469 604.914062 960.296875 602.601562 C 962.738281 600.289062 964.835938 597.699219 966.597656 594.839844 C 968.457031 591.738281 970 588.484375 971.21875 585.082031 C 971.738281 586.992188 971.964844 588.9375 971.898438 590.917969 C 971.832031 592.898438 971.472656 594.828125 970.824219 596.707031 C 970.179688 598.640625 969.308594 600.46875 968.210938 602.1875 C 967.113281 603.90625 965.824219 605.46875 964.339844 606.871094 C 962.855469 608.273438 961.222656 609.472656 959.445312 610.472656 C 957.664062 611.46875 955.792969 612.238281 953.828125 612.773438 C 951.914062 613.316406 949.964844 613.5625 947.984375 613.519531 C 946 613.476562 944.070312 613.140625 942.191406 612.515625 Z M 942.191406 612.515625 " fill-opacity="1" fill-rule="nonzero"/></g></g></g><g clip-path="url(#fe37177ae5)"><g clip-path="url(#9cd3b5088d)"><g clip-path="url(#2bd2e1bd49)"><path fill="#f3f5f8" d="M 972.09375 645.035156 C 970.980469 641.597656 969.535156 638.304688 967.757812 635.152344 C 966.082031 632.238281 964.054688 629.59375 961.675781 627.21875 C 959.292969 624.84375 956.648438 622.820312 953.738281 621.140625 C 950.582031 619.367188 947.289062 617.917969 943.851562 616.796875 C 945.746094 616.222656 947.683594 615.941406 949.667969 615.953125 C 951.648438 615.964844 953.589844 616.265625 955.484375 616.863281 C 957.4375 617.453125 959.285156 618.273438 961.035156 619.320312 C 962.785156 620.367188 964.382812 621.613281 965.828125 623.058594 C 967.269531 624.503906 968.515625 626.097656 969.566406 627.847656 C 970.613281 629.597656 971.433594 631.449219 972.023438 633.398438 C 972.617188 635.296875 972.921875 637.234375 972.933594 639.21875 C 972.949219 641.203125 972.667969 643.140625 972.09375 645.035156 Z M 972.09375 645.035156 " fill-opacity="1" fill-rule="nonzero"/></g></g></g><g clip-path="url(#bd02411975)"><g clip-path="url(#1a3ccc0522)"><g clip-path="url(#c4d3494801)"><path fill="#f3f5f8" d="M 1005.570312 612.460938 C 1002.097656 611.464844 998.753906 610.136719 995.542969 608.472656 C 992.570312 606.894531 989.859375 604.960938 987.402344 602.667969 C 984.945312 600.371094 982.828125 597.796875 981.046875 594.945312 C 979.167969 591.855469 977.605469 588.613281 976.363281 585.21875 C 975.855469 587.132812 975.640625 589.078125 975.722656 591.058594 C 975.804688 593.039062 976.175781 594.96875 976.835938 596.839844 C 977.492188 598.769531 978.375 600.589844 979.484375 602.304688 C 980.59375 604.015625 981.894531 605.570312 983.386719 606.960938 C 984.878906 608.351562 986.519531 609.542969 988.304688 610.53125 C 990.089844 611.515625 991.96875 612.269531 993.9375 612.792969 C 995.855469 613.324219 997.804688 613.558594 999.785156 613.503906 C 1001.769531 613.445312 1003.695312 613.097656 1005.570312 612.460938 Z M 1005.570312 612.460938 " fill-opacity="1" fill-rule="nonzero"/></g></g></g><g clip-path="url(#9c42aca614)"><path fill="#f3f5f8" d="M 559.949219 613.113281 C 538.066406 607.070312 533.515625 602.519531 527.472656 580.644531 C 527.328125 580.117188 526.851562 579.753906 526.300781 579.753906 C 525.75 579.753906 525.269531 580.117188 525.125 580.644531 C 519.089844 602.519531 514.539062 607.070312 492.664062 613.113281 C 492.136719 613.257812 491.773438 613.738281 491.773438 614.289062 C 491.773438 614.839844 492.136719 615.316406 492.664062 615.460938 C 514.539062 621.503906 519.089844 626.054688 525.132812 647.929688 C 525.277344 648.457031 525.757812 648.824219 526.308594 648.824219 C 526.859375 648.824219 527.335938 648.457031 527.480469 647.929688 C 533.523438 626.054688 538.074219 621.503906 559.949219 615.460938 C 560.476562 615.316406 560.839844 614.839844 560.839844 614.289062 C 560.839844 613.738281 560.476562 613.257812 559.949219 613.113281 Z M 559.949219 613.113281 " fill-opacity="1" fill-rule="nonzero"/></g><g clip-path="url(#07a16d684a)"><g clip-path="url(#05e09753ba)"><g clip-path="url(#51f706d340)"><path fill="#f3f5f8" d="M 557.957031 616.199219 C 554.488281 617.214844 551.15625 618.566406 547.957031 620.253906 C 544.996094 621.847656 542.296875 623.800781 539.851562 626.113281 C 537.414062 628.425781 535.3125 631.015625 533.550781 633.875 C 531.691406 636.980469 530.152344 640.230469 528.933594 643.632812 C 528.410156 641.726562 528.1875 639.78125 528.253906 637.796875 C 528.320312 635.816406 528.679688 633.886719 529.328125 632.007812 C 529.972656 630.074219 530.84375 628.25 531.941406 626.527344 C 533.039062 624.808594 534.328125 623.246094 535.8125 621.84375 C 537.296875 620.441406 538.925781 619.242188 540.707031 618.242188 C 542.484375 617.246094 544.359375 616.476562 546.324219 615.945312 C 548.238281 615.402344 550.183594 615.152344 552.167969 615.195312 C 554.148438 615.238281 556.082031 615.574219 557.957031 616.199219 Z M 557.957031 616.199219 " fill-opacity="1" fill-rule="nonzero"/></g></g></g><g clip-path="url(#f9c4e45208)"><g clip-path="url(#b573ab880b)"><g clip-path="url(#0c41a69c60)"><path fill="#f3f5f8" d="M 494.703125 612.515625 C 498.171875 611.5 501.503906 610.148438 504.707031 608.460938 C 507.664062 606.867188 510.363281 604.914062 512.808594 602.601562 C 515.246094 600.289062 517.347656 597.699219 519.109375 594.839844 C 520.96875 591.738281 522.507812 588.484375 523.730469 585.082031 C 524.25 586.992188 524.476562 588.9375 524.40625 590.917969 C 524.339844 592.898438 523.980469 594.828125 523.332031 596.707031 C 522.6875 598.640625 521.816406 600.46875 520.71875 602.1875 C 519.621094 603.90625 518.332031 605.46875 516.847656 606.871094 C 515.363281 608.273438 513.734375 609.472656 511.953125 610.472656 C 510.175781 611.46875 508.304688 612.238281 506.335938 612.773438 C 504.425781 613.316406 502.476562 613.5625 500.492188 613.519531 C 498.511719 613.476562 496.582031 613.140625 494.703125 612.515625 Z M 494.703125 612.515625 " fill-opacity="1" fill-rule="nonzero"/></g></g></g><g clip-path="url(#9138006234)"><g clip-path="url(#e72001012a)"><g clip-path="url(#ef9b38ed71)"><path fill="#f3f5f8" d="M 524.605469 645.035156 C 523.488281 641.597656 522.046875 638.304688 520.269531 635.152344 C 518.589844 632.238281 516.5625 629.59375 514.183594 627.21875 C 511.804688 624.84375 509.15625 622.820312 506.246094 621.140625 C 503.09375 619.367188 499.796875 617.917969 496.363281 616.796875 C 498.257812 616.222656 500.195312 615.941406 502.175781 615.953125 C 504.160156 615.964844 506.097656 616.265625 507.996094 616.863281 C 509.945312 617.453125 511.796875 618.273438 513.546875 619.320312 C 515.296875 620.367188 516.894531 621.613281 518.335938 623.058594 C 519.78125 624.503906 521.027344 626.097656 522.074219 627.847656 C 523.125 629.597656 523.941406 631.449219 524.53125 633.398438 C 525.128906 635.296875 525.433594 637.234375 525.445312 639.21875 C 525.457031 641.203125 525.175781 643.140625 524.605469 645.035156 Z M 524.605469 645.035156 " fill-opacity="1" fill-rule="nonzero"/></g></g></g><g clip-path="url(#9e3c119d14)"><g clip-path="url(#f72e4bb3f1)"><g clip-path="url(#cb4afe1870)"><path fill="#f3f5f8" d="M 558.078125 612.460938 C 554.605469 611.464844 551.261719 610.136719 548.050781 608.472656 C 545.082031 606.894531 542.367188 604.960938 539.910156 602.667969 C 537.457031 600.371094 535.339844 597.796875 533.558594 594.945312 C 531.675781 591.855469 530.113281 588.613281 528.871094 585.21875 C 528.367188 587.132812 528.152344 589.078125 528.234375 591.058594 C 528.3125 593.039062 528.683594 594.96875 529.34375 596.839844 C 530.003906 598.769531 530.886719 600.589844 531.996094 602.304688 C 533.105469 604.015625 534.40625 605.570312 535.898438 606.960938 C 537.390625 608.351562 539.03125 609.542969 540.816406 610.53125 C 542.601562 611.515625 544.476562 612.269531 546.449219 612.792969 C 548.363281 613.324219 550.3125 613.558594 552.296875 613.503906 C 554.277344 613.445312 556.207031 613.097656 558.078125 612.460938 Z M 558.078125 612.460938 " fill-opacity="1" fill-rule="nonzero"/></g></g></g><g clip-path="url(#a1a854e1ca)"><path fill="#2f4c79" d="M 503.429688 65.832031 C 503.429688 65.832031 586.121094 253.6875 438.777344 477.617188 C 291.4375 701.542969 88.464844 799.230469 68.921875 999.113281 C 49.375 1198.996094 -116.007812 955.53125 -116.007812 955.53125 L -109.996094 44.789062 Z M 503.429688 65.832031 " fill-opacity="1" fill-rule="nonzero"/></g><path fill="#213150" d="M 294.441406 178.546875 C 294.441406 178.546875 360.597656 297.273438 223.78125 507.675781 C 86.960938 718.074219 53.886719 707.554688 23.816406 778.191406 C -6.253906 848.824219 -197.195312 739.117188 -197.195312 739.117188 L 172.660156 157.503906 Z M 294.441406 178.546875 " fill-opacity="1" fill-rule="nonzero"/><g clip-path="url(#9f19e9df9f)"><path fill="#2f4c79" d="M 996.238281 65.832031 C 996.238281 65.832031 913.546875 253.6875 1060.886719 477.617188 C 1208.230469 701.542969 1411.199219 799.230469 1430.746094 999.113281 C 1450.289062 1198.996094 1615.675781 955.53125 1615.675781 955.53125 L 1609.660156 44.789062 Z M 996.238281 65.832031 " fill-opacity="1" fill-rule="nonzero"/></g><path fill="#213150" d="M 1205.222656 178.546875 C 1205.222656 178.546875 1139.070312 297.273438 1275.886719 507.675781 C 1412.703125 718.074219 1445.78125 707.554688 1475.851562 778.191406 C 1505.917969 848.824219 1696.863281 739.117188 1696.863281 739.117188 L 1327.003906 157.503906 Z M 1205.222656 178.546875 " fill-opacity="1" fill-rule="nonzero"/><path fill="#ffffff" d="M -673.320312 -672.042969 L -673.320312 2171.875 L 2170.597656 2171.875 L 2170.597656 -672.042969 Z M 748.640625 1490.519531 C 736.519531 1490.519531 724.40625 1490.21875 712.300781 1489.625 C 700.195312 1489.03125 688.109375 1488.140625 676.046875 1486.953125 C 663.984375 1485.761719 651.960938 1484.28125 639.96875 1482.503906 C 627.980469 1480.722656 616.042969 1478.652344 604.15625 1476.289062 C 592.265625 1473.921875 580.445312 1471.269531 568.6875 1468.324219 C 556.929688 1465.378906 545.25 1462.148438 533.652344 1458.628906 C 522.054688 1455.109375 510.550781 1451.308594 499.136719 1447.226562 C 487.726562 1443.140625 476.421875 1438.78125 465.222656 1434.144531 C 454.023438 1429.503906 442.945312 1424.59375 431.992188 1419.410156 C 421.035156 1414.230469 410.210938 1408.78125 399.519531 1403.070312 C 388.832031 1397.355469 378.289062 1391.382812 367.894531 1385.152344 C 357.496094 1378.921875 347.257812 1372.4375 337.183594 1365.703125 C 327.105469 1358.96875 317.199219 1351.992188 307.460938 1344.773438 C 297.726562 1337.550781 288.175781 1330.097656 278.804688 1322.410156 C 269.4375 1314.71875 260.261719 1306.804688 251.28125 1298.664062 C 242.300781 1290.527344 233.523438 1282.171875 224.953125 1273.601562 C 216.382812 1265.03125 208.027344 1256.253906 199.886719 1247.273438 C 191.75 1238.292969 183.835938 1229.117188 176.144531 1219.75 C 168.457031 1210.378906 161 1200.828125 153.78125 1191.089844 C 146.5625 1181.355469 139.582031 1171.449219 132.851562 1161.371094 C 126.117188 1151.292969 119.632812 1141.058594 113.402344 1130.660156 C 107.171875 1120.265625 101.199219 1109.722656 95.484375 1099.03125 C 89.773438 1088.34375 84.324219 1077.519531 79.140625 1066.5625 C 73.960938 1055.605469 69.050781 1044.527344 64.410156 1033.332031 C 59.773438 1022.132812 55.410156 1010.828125 51.328125 999.417969 C 47.246094 988.003906 43.445312 976.5 39.925781 964.902344 C 36.40625 953.300781 33.175781 941.625 30.230469 929.867188 C 27.285156 918.109375 24.628906 906.285156 22.265625 894.398438 C 19.902344 882.511719 17.828125 870.574219 16.050781 858.582031 C 14.273438 846.59375 12.789062 834.570312 11.601562 822.507812 C 10.414062 810.445312 9.523438 798.359375 8.929688 786.253906 C 8.332031 774.148438 8.035156 762.035156 8.035156 749.914062 C 8.035156 737.792969 8.332031 725.679688 8.929688 713.574219 C 9.523438 701.46875 10.414062 689.386719 11.601562 677.324219 C 12.789062 665.261719 14.273438 653.234375 16.050781 641.246094 C 17.828125 629.257812 19.902344 617.316406 22.265625 605.429688 C 24.628906 593.542969 27.285156 581.71875 30.230469 569.960938 C 33.175781 558.207031 36.40625 546.527344 39.925781 534.929688 C 43.445312 523.328125 47.246094 511.824219 51.328125 500.414062 C 55.410156 489 59.773438 477.695312 64.410156 466.496094 C 69.050781 455.300781 73.960938 444.222656 79.140625 433.265625 C 84.324219 422.308594 89.773438 411.484375 95.484375 400.796875 C 101.199219 390.105469 107.171875 379.5625 113.402344 369.167969 C 119.632812 358.773438 126.117188 348.535156 132.851562 338.457031 C 139.582031 328.378906 146.5625 318.472656 153.78125 308.738281 C 161 299.003906 168.457031 289.449219 176.144531 280.082031 C 183.835938 270.710938 191.75 261.535156 199.886719 252.554688 C 208.027344 243.574219 216.382812 234.800781 224.953125 226.230469 C 233.523438 217.660156 242.300781 209.304688 251.28125 201.164062 C 260.261719 193.023438 269.4375 185.109375 278.804688 177.421875 C 288.175781 169.730469 297.726562 162.277344 307.460938 155.054688 C 317.199219 147.835938 327.105469 140.859375 337.183594 134.125 C 347.257812 127.390625 357.496094 120.910156 367.894531 114.679688 C 378.289062 108.445312 388.832031 102.472656 399.519531 96.761719 C 410.210938 91.046875 421.035156 85.597656 431.992188 80.417969 C 442.945312 75.234375 454.023438 70.324219 465.222656 65.6875 C 476.421875 61.046875 487.726562 56.6875 499.136719 52.605469 C 510.550781 48.519531 522.054688 44.71875 533.652344 41.203125 C 545.25 37.683594 556.929688 34.449219 568.6875 31.507812 C 580.445312 28.5625 592.265625 25.90625 604.15625 23.542969 C 616.042969 21.175781 627.980469 19.105469 639.96875 17.328125 C 651.960938 15.546875 663.984375 14.066406 676.046875 12.878906 C 688.109375 11.6875 700.195312 10.796875 712.300781 10.203125 C 724.40625 9.609375 736.519531 9.3125 748.640625 9.3125 C 760.757812 9.3125 772.871094 9.609375 784.980469 10.203125 C 797.085938 10.796875 809.167969 11.6875 821.230469 12.878906 C 833.292969 14.066406 845.320312 15.546875 857.308594 17.328125 C 869.296875 19.105469 881.234375 21.175781 893.125 23.542969 C 905.011719 25.90625 916.832031 28.5625 928.589844 31.507812 C 940.347656 34.449219 952.027344 37.683594 963.625 41.199219 C 975.222656 44.71875 986.730469 48.519531 998.140625 52.605469 C 1009.554688 56.6875 1020.859375 61.046875 1032.054688 65.6875 C 1043.253906 70.324219 1054.332031 75.234375 1065.289062 80.417969 C 1076.246094 85.597656 1087.066406 91.046875 1097.757812 96.761719 C 1108.445312 102.472656 1118.988281 108.445312 1129.386719 114.675781 C 1139.78125 120.910156 1150.019531 127.390625 1160.097656 134.125 C 1170.175781 140.859375 1180.082031 147.835938 1189.816406 155.054688 C 1199.550781 162.277344 1209.105469 169.730469 1218.472656 177.421875 C 1227.84375 185.109375 1237.015625 193.023438 1245.996094 201.164062 C 1254.976562 209.304688 1263.753906 217.660156 1272.324219 226.230469 C 1280.894531 234.800781 1289.25 243.574219 1297.390625 252.554688 C 1305.53125 261.535156 1313.445312 270.710938 1321.132812 280.082031 C 1328.824219 289.449219 1336.277344 299.003906 1343.496094 308.738281 C 1350.71875 318.472656 1357.695312 328.378906 1364.429688 338.457031 C 1371.160156 348.535156 1377.644531 358.773438 1383.875 369.167969 C 1390.105469 379.5625 1396.078125 390.105469 1401.792969 400.796875 C 1407.507812 411.484375 1412.953125 422.308594 1418.136719 433.265625 C 1423.320312 444.222656 1428.230469 455.300781 1432.867188 466.496094 C 1437.503906 477.695312 1441.867188 489 1445.949219 500.414062 C 1450.035156 511.824219 1453.835938 523.328125 1457.351562 534.929688 C 1460.871094 546.527344 1464.101562 558.203125 1467.046875 569.960938 C 1469.992188 581.71875 1472.648438 593.542969 1475.011719 605.429688 C 1477.375 617.316406 1479.449219 629.257812 1481.226562 641.246094 C 1483.003906 653.234375 1484.488281 665.261719 1485.675781 677.324219 C 1486.863281 689.386719 1487.753906 701.46875 1488.351562 713.574219 C 1488.945312 725.679688 1489.242188 737.792969 1489.242188 749.914062 C 1489.246094 762.035156 1488.949219 774.148438 1488.355469 786.257812 C 1487.765625 798.363281 1486.875 810.449219 1485.6875 822.511719 C 1484.503906 834.574219 1483.019531 846.601562 1481.246094 858.589844 C 1479.46875 870.582031 1477.398438 882.519531 1475.035156 894.410156 C 1472.671875 906.296875 1470.019531 918.121094 1467.074219 929.878906 C 1464.128906 941.636719 1460.898438 953.316406 1457.382812 964.914062 C 1453.863281 976.515625 1450.066406 988.019531 1445.984375 999.433594 C 1441.902344 1010.847656 1437.539062 1022.152344 1432.902344 1033.351562 C 1428.265625 1044.550781 1423.355469 1055.628906 1418.175781 1066.585938 C 1412.992188 1077.542969 1407.546875 1088.367188 1401.832031 1099.058594 C 1396.121094 1109.75 1390.148438 1120.292969 1383.917969 1130.691406 C 1377.683594 1141.085938 1371.203125 1151.324219 1364.46875 1161.402344 C 1357.734375 1171.480469 1350.757812 1181.390625 1343.539062 1191.125 C 1336.316406 1200.859375 1328.863281 1210.414062 1321.171875 1219.785156 C 1313.484375 1229.152344 1305.570312 1238.328125 1297.429688 1247.3125 C 1289.289062 1256.292969 1280.933594 1265.066406 1272.363281 1273.640625 C 1263.792969 1282.210938 1255.015625 1290.566406 1246.035156 1298.707031 C 1237.054688 1306.84375 1227.878906 1314.761719 1218.507812 1322.449219 C 1209.136719 1330.136719 1199.585938 1337.59375 1189.851562 1344.8125 C 1180.113281 1352.035156 1170.207031 1359.011719 1160.128906 1365.746094 C 1150.050781 1372.476562 1139.8125 1378.960938 1129.414062 1385.191406 C 1119.015625 1391.421875 1108.472656 1397.394531 1097.785156 1403.105469 C 1087.09375 1408.820312 1076.269531 1414.269531 1065.3125 1419.449219 C 1054.355469 1424.632812 1043.273438 1429.539062 1032.078125 1434.179688 C 1020.878906 1438.816406 1009.570312 1443.175781 998.160156 1447.257812 C 986.746094 1451.339844 975.238281 1455.140625 963.640625 1458.65625 C 952.039062 1462.175781 940.363281 1465.40625 928.601562 1468.347656 C 916.84375 1471.292969 905.023438 1473.945312 893.132812 1476.308594 C 881.246094 1478.671875 869.304688 1480.742188 857.316406 1482.519531 C 845.324219 1484.296875 833.296875 1485.777344 821.234375 1486.964844 C 809.171875 1488.148438 797.085938 1489.039062 784.980469 1489.632812 C 772.875 1490.226562 760.761719 1490.519531 748.640625 1490.519531 Z M 748.640625 1490.519531 " fill-opacity="1" fill-rule="nonzero"/><path fill="#ffffff" d="M 2183.765625 2185.039062 L -686.484375 2185.039062 L -686.484375 -685.210938 L 2183.765625 -685.210938 Z M -660.152344 2158.707031 L 2157.429688 2158.707031 L 2157.429688 -658.878906 L -660.152344 -658.878906 Z M 748.640625 1503.683594 C 736.304688 1503.683594 723.972656 1503.382812 711.652344 1502.777344 C 699.332031 1502.171875 687.035156 1501.261719 674.757812 1500.054688 C 662.480469 1498.84375 650.242188 1497.335938 638.039062 1495.527344 C 625.835938 1493.714844 613.683594 1491.605469 601.585938 1489.199219 C 589.488281 1486.792969 577.453125 1484.09375 565.488281 1481.09375 C 553.523438 1478.097656 541.636719 1474.808594 529.832031 1471.226562 C 518.027344 1467.644531 506.316406 1463.777344 494.703125 1459.621094 C 483.085938 1455.464844 471.582031 1451.027344 460.183594 1446.308594 C 448.785156 1441.585938 437.511719 1436.589844 426.359375 1431.3125 C 415.210938 1426.039062 404.195312 1420.496094 393.316406 1414.679688 C 382.433594 1408.863281 371.703125 1402.785156 361.125 1396.445312 C 350.542969 1390.101562 340.125 1383.503906 329.867188 1376.652344 C 319.609375 1369.796875 309.527344 1362.695312 299.617188 1355.347656 C 289.710938 1348 279.988281 1340.414062 270.453125 1332.585938 C 260.917969 1324.761719 251.578125 1316.707031 242.4375 1308.421875 C 233.296875 1300.136719 224.367188 1291.632812 215.644531 1282.910156 C 206.921875 1274.1875 198.417969 1265.253906 190.132812 1256.117188 C 181.847656 1246.976562 173.792969 1237.636719 165.96875 1228.101562 C 158.140625 1218.566406 150.554688 1208.84375 143.207031 1198.933594 C 135.855469 1189.027344 128.757812 1178.945312 121.902344 1168.6875 C 115.050781 1158.429688 108.449219 1148.011719 102.109375 1137.429688 C 95.765625 1126.847656 89.6875 1116.117188 83.875 1105.238281 C 78.058594 1094.359375 72.511719 1083.34375 67.238281 1072.191406 C 61.964844 1061.039062 56.96875 1049.765625 52.246094 1038.371094 C 47.527344 1026.972656 43.085938 1015.464844 38.929688 1003.851562 C 34.777344 992.238281 30.90625 980.527344 27.328125 968.722656 C 23.746094 956.917969 20.457031 945.03125 17.457031 933.066406 C 14.460938 921.097656 11.757812 909.066406 9.351562 896.96875 C 6.945312 884.867188 4.835938 872.71875 3.027344 860.515625 C 1.21875 848.3125 -0.292969 836.074219 -1.5 823.796875 C -2.710938 811.519531 -3.617188 799.222656 -4.222656 786.898438 C -4.828125 774.578125 -5.128906 762.25 -5.128906 749.914062 C -5.128906 737.578125 -4.828125 725.25 -4.222656 712.929688 C -3.617188 700.609375 -2.710938 688.308594 -1.5 676.03125 C -0.292969 663.753906 1.21875 651.515625 3.027344 639.3125 C 4.835938 627.109375 6.945312 614.960938 9.351562 602.859375 C 11.757812 590.761719 14.460938 578.730469 17.457031 566.761719 C 20.457031 554.796875 23.746094 542.910156 27.328125 531.105469 C 30.90625 519.300781 34.777344 507.59375 38.933594 495.976562 C 43.085938 484.363281 47.527344 472.855469 52.246094 461.460938 C 56.96875 450.0625 61.964844 438.789062 67.238281 427.636719 C 72.511719 416.484375 78.058594 405.46875 83.875 394.589844 C 89.6875 383.710938 95.765625 372.980469 102.109375 362.398438 C 108.453125 351.816406 115.050781 341.398438 121.902344 331.140625 C 128.757812 320.886719 135.855469 310.800781 143.207031 300.894531 C 150.554688 290.984375 158.140625 281.265625 165.96875 271.726562 C 173.792969 262.191406 181.847656 252.855469 190.132812 243.714844 C 198.417969 234.574219 206.921875 225.640625 215.644531 216.917969 C 224.367188 208.195312 233.296875 199.691406 242.4375 191.40625 C 251.578125 183.125 260.917969 175.066406 270.453125 167.242188 C 279.988281 159.417969 289.710938 151.828125 299.617188 144.480469 C 309.527344 137.132812 319.609375 130.03125 329.867188 123.179688 C 340.125 116.324219 350.542969 109.726562 361.125 103.382812 C 371.703125 97.042969 382.433594 90.964844 393.316406 85.148438 C 404.195312 79.332031 415.210938 73.789062 426.359375 68.515625 C 437.511719 63.242188 448.785156 58.242188 460.183594 53.523438 C 471.582031 48.800781 483.085938 44.363281 494.703125 40.207031 C 506.316406 36.050781 518.027344 32.183594 529.832031 28.601562 C 541.636719 25.019531 553.523438 21.730469 565.488281 18.734375 C 577.453125 15.738281 589.488281 13.035156 601.585938 10.628906 C 613.683594 8.222656 625.835938 6.113281 638.039062 4.304688 C 650.242188 2.492188 662.480469 0.984375 674.757812 -0.226562 C 687.035156 -1.433594 699.332031 -2.34375 711.652344 -2.945312 C 723.972656 -3.550781 736.304688 -3.855469 748.640625 -3.855469 C 760.976562 -3.855469 773.304688 -3.550781 785.625 -2.945312 C 797.945312 -2.34375 810.246094 -1.433594 822.519531 -0.226562 C 834.796875 0.984375 847.039062 2.492188 859.238281 4.304688 C 871.441406 6.113281 883.59375 8.222656 895.691406 10.628906 C 907.792969 13.035156 919.824219 15.738281 931.789062 18.734375 C 943.757812 21.730469 955.640625 25.019531 967.445312 28.601562 C 979.25 32.183594 990.960938 36.050781 1002.578125 40.207031 C 1014.191406 44.363281 1025.695312 48.800781 1037.09375 53.523438 C 1048.492188 58.242188 1059.765625 63.242188 1070.917969 68.515625 C 1082.070312 73.789062 1093.085938 79.332031 1103.964844 85.148438 C 1114.84375 90.964844 1125.574219 97.042969 1136.152344 103.382812 C 1146.734375 109.726562 1157.152344 116.324219 1167.410156 123.179688 C 1177.667969 130.03125 1187.75 137.132812 1197.660156 144.480469 C 1207.566406 151.828125 1217.289062 159.417969 1226.824219 167.242188 C 1236.363281 175.070312 1245.699219 183.125 1254.839844 191.40625 C 1263.980469 199.691406 1272.910156 208.195312 1281.632812 216.917969 C 1290.359375 225.640625 1298.859375 234.574219 1307.144531 243.714844 C 1315.429688 252.855469 1323.484375 262.191406 1331.3125 271.726562 C 1339.136719 281.265625 1346.722656 290.984375 1354.074219 300.894531 C 1361.421875 310.800781 1368.523438 320.886719 1375.375 331.140625 C 1382.230469 341.398438 1388.828125 351.816406 1395.167969 362.398438 C 1401.511719 372.980469 1407.589844 383.710938 1413.40625 394.589844 C 1419.21875 405.46875 1424.765625 416.484375 1430.039062 427.636719 C 1435.3125 438.789062 1440.308594 450.0625 1445.03125 461.460938 C 1449.753906 472.855469 1454.191406 484.363281 1458.347656 495.976562 C 1462.503906 507.59375 1466.371094 519.300781 1469.953125 531.105469 C 1473.53125 542.910156 1476.820312 554.796875 1479.820312 566.761719 C 1482.816406 578.730469 1485.519531 590.761719 1487.925781 602.859375 C 1490.332031 614.960938 1492.441406 627.109375 1494.25 639.3125 C 1496.058594 651.515625 1497.570312 663.753906 1498.777344 676.03125 C 1499.988281 688.308594 1500.894531 700.609375 1501.5 712.929688 C 1502.105469 725.25 1502.410156 737.578125 1502.410156 749.914062 C 1502.394531 762.246094 1502.082031 774.570312 1501.464844 786.890625 C 1500.847656 799.207031 1499.925781 811.5 1498.707031 823.773438 C 1497.488281 836.042969 1495.96875 848.277344 1494.148438 860.476562 C 1492.328125 872.675781 1490.210938 884.820312 1487.796875 896.914062 C 1485.378906 909.007812 1482.667969 921.035156 1479.664062 932.996094 C 1476.660156 944.957031 1473.363281 956.835938 1469.773438 968.632812 C 1466.1875 980.433594 1462.3125 992.136719 1458.152344 1003.746094 C 1453.988281 1015.355469 1449.546875 1026.855469 1444.820312 1038.246094 C 1440.09375 1049.640625 1435.09375 1060.90625 1429.816406 1072.054688 C 1424.539062 1083.199219 1418.988281 1094.210938 1413.171875 1105.082031 C 1407.355469 1115.957031 1401.273438 1126.683594 1394.929688 1137.257812 C 1388.585938 1147.832031 1381.988281 1158.246094 1375.132812 1168.5 C 1368.28125 1178.753906 1361.179688 1188.832031 1353.828125 1198.734375 C 1346.480469 1208.636719 1338.894531 1218.355469 1331.070312 1227.890625 C 1323.246094 1237.421875 1315.191406 1246.753906 1306.910156 1255.894531 C 1298.625 1265.03125 1290.125 1273.957031 1281.402344 1282.679688 C 1272.683594 1291.398438 1263.753906 1299.902344 1254.617188 1308.183594 C 1245.480469 1316.464844 1236.144531 1324.519531 1226.613281 1332.34375 C 1217.082031 1340.171875 1207.363281 1347.757812 1197.460938 1355.105469 C 1187.554688 1362.453125 1177.476562 1369.554688 1167.226562 1376.410156 C 1156.972656 1383.261719 1146.558594 1389.863281 1135.984375 1396.207031 C 1125.40625 1402.550781 1114.683594 1408.628906 1103.808594 1414.449219 C 1092.933594 1420.265625 1081.925781 1425.8125 1070.777344 1431.089844 C 1059.632812 1436.371094 1048.363281 1441.371094 1036.972656 1446.097656 C 1025.582031 1450.820312 1014.082031 1455.265625 1002.472656 1459.425781 C 990.863281 1463.589844 979.15625 1467.460938 967.359375 1471.050781 C 955.558594 1474.636719 943.679688 1477.933594 931.71875 1480.941406 C 919.757812 1483.945312 907.730469 1486.65625 895.636719 1489.070312 C 883.542969 1491.484375 871.398438 1493.605469 859.199219 1495.421875 C 847.003906 1497.242188 834.769531 1498.761719 822.496094 1499.984375 C 810.226562 1501.203125 797.929688 1502.121094 785.613281 1502.738281 C 773.296875 1503.355469 760.972656 1503.671875 748.640625 1503.683594 Z M 748.640625 22.476562 C 736.734375 22.476562 724.835938 22.769531 712.945312 23.355469 C 701.054688 23.9375 689.183594 24.8125 677.335938 25.980469 C 665.488281 27.148438 653.679688 28.605469 641.902344 30.351562 C 630.125 32.097656 618.398438 34.132812 606.722656 36.453125 C 595.046875 38.777344 583.433594 41.386719 571.886719 44.277344 C 560.339844 47.171875 548.867188 50.34375 537.476562 53.800781 C 526.082031 57.257812 514.78125 60.988281 503.574219 65 C 492.363281 69.011719 481.257812 73.292969 470.261719 77.851562 C 459.261719 82.40625 448.382812 87.230469 437.621094 92.320312 C 426.855469 97.410156 416.226562 102.761719 405.726562 108.371094 C 395.226562 113.984375 384.871094 119.851562 374.660156 125.972656 C 364.449219 132.089844 354.394531 138.457031 344.496094 145.074219 C 334.597656 151.6875 324.867188 158.539062 315.304688 165.632812 C 305.742188 172.722656 296.359375 180.046875 287.15625 187.597656 C 277.953125 195.152344 268.941406 202.925781 260.121094 210.917969 C 251.300781 218.914062 242.679688 227.121094 234.261719 235.539062 C 225.84375 243.957031 217.636719 252.578125 209.644531 261.398438 C 201.648438 270.21875 193.875 279.230469 186.324219 288.433594 C 178.769531 297.636719 171.449219 307.019531 164.355469 316.582031 C 157.265625 326.144531 150.410156 335.875 143.796875 345.773438 C 137.183594 355.671875 130.816406 365.726562 124.695312 375.9375 C 118.574219 386.148438 112.707031 396.503906 107.097656 407.003906 C 101.484375 417.503906 96.132812 428.132812 91.042969 438.894531 C 85.953125 449.65625 81.128906 460.539062 76.574219 471.535156 C 72.019531 482.535156 67.734375 493.640625 63.726562 504.847656 C 59.714844 516.058594 55.980469 527.359375 52.523438 538.75 C 49.070312 550.144531 45.894531 561.613281 43.003906 573.160156 C 40.109375 584.710938 37.503906 596.320312 35.179688 608 C 32.855469 619.675781 30.820312 631.402344 29.074219 643.175781 C 27.328125 654.953125 25.871094 666.765625 24.703125 678.613281 C 23.539062 690.460938 22.664062 702.332031 22.078125 714.222656 C 21.492188 726.113281 21.203125 738.007812 21.203125 749.914062 C 21.203125 761.820312 21.492188 773.71875 22.078125 785.609375 C 22.664062 797.5 23.539062 809.367188 24.703125 821.214844 C 25.871094 833.0625 27.328125 844.875 29.074219 856.652344 C 30.824219 868.429688 32.855469 880.152344 35.179688 891.832031 C 37.503906 903.507812 40.109375 915.117188 43.003906 926.667969 C 45.894531 938.214844 49.070312 949.6875 52.523438 961.078125 C 55.980469 972.472656 59.714844 983.773438 63.726562 994.980469 C 67.734375 1006.191406 72.019531 1017.292969 76.574219 1028.292969 C 81.128906 1039.292969 85.953125 1050.171875 91.042969 1060.933594 C 96.132812 1071.695312 101.484375 1082.328125 107.097656 1092.824219 C 112.707031 1103.324219 118.574219 1113.679688 124.695312 1123.890625 C 130.816406 1134.101562 137.183594 1144.15625 143.796875 1154.058594 C 150.410156 1163.957031 157.265625 1173.6875 164.355469 1183.25 C 171.449219 1192.808594 178.769531 1202.191406 186.324219 1211.394531 C 193.875 1220.597656 201.648438 1229.609375 209.644531 1238.429688 C 217.640625 1247.253906 225.84375 1255.871094 234.261719 1264.289062 C 242.679688 1272.707031 251.300781 1280.914062 260.121094 1288.910156 C 268.941406 1296.90625 277.957031 1304.679688 287.15625 1312.230469 C 296.359375 1319.785156 305.742188 1327.105469 315.304688 1334.199219 C 324.867188 1341.289062 334.597656 1348.140625 344.496094 1354.757812 C 354.394531 1361.371094 364.449219 1367.738281 374.660156 1373.859375 C 384.871094 1379.980469 395.226562 1385.84375 405.726562 1391.457031 C 416.226562 1397.070312 426.859375 1402.417969 437.621094 1407.507812 C 448.382812 1412.601562 459.261719 1417.421875 470.261719 1421.980469 C 481.257812 1426.535156 492.363281 1430.816406 503.574219 1434.828125 C 514.78125 1438.839844 526.082031 1442.574219 537.476562 1446.027344 C 548.867188 1449.484375 560.339844 1452.660156 571.886719 1455.550781 C 583.433594 1458.445312 595.046875 1461.050781 606.722656 1463.375 C 618.398438 1465.695312 630.125 1467.730469 641.902344 1469.476562 C 653.679688 1471.226562 665.488281 1472.683594 677.335938 1473.847656 C 689.183594 1475.015625 701.054688 1475.890625 712.945312 1476.476562 C 724.835938 1477.058594 736.734375 1477.351562 748.640625 1477.351562 C 760.542969 1477.351562 772.441406 1477.058594 784.332031 1476.476562 C 796.222656 1475.890625 808.09375 1475.015625 819.941406 1473.847656 C 831.789062 1472.683594 843.601562 1471.226562 855.375 1469.476562 C 867.152344 1467.730469 878.878906 1465.695312 890.554688 1463.375 C 902.230469 1461.050781 913.84375 1458.445312 925.390625 1455.550781 C 936.941406 1452.660156 948.410156 1449.484375 959.804688 1446.027344 C 971.195312 1442.574219 982.496094 1438.839844 993.707031 1434.828125 C 1004.914062 1430.816406 1016.019531 1426.535156 1027.015625 1421.980469 C 1038.015625 1417.421875 1048.894531 1412.601562 1059.660156 1407.507812 C 1070.421875 1402.417969 1081.050781 1397.070312 1091.550781 1391.457031 C 1102.050781 1385.84375 1112.40625 1379.980469 1122.617188 1373.859375 C 1132.828125 1367.738281 1142.882812 1361.371094 1152.78125 1354.757812 C 1162.679688 1348.140625 1172.410156 1341.289062 1181.972656 1334.199219 C 1191.535156 1327.105469 1200.917969 1319.785156 1210.121094 1312.230469 C 1219.324219 1304.679688 1228.335938 1296.90625 1237.15625 1288.910156 C 1245.976562 1280.914062 1254.597656 1272.707031 1263.015625 1264.289062 C 1271.433594 1255.871094 1279.640625 1247.253906 1287.632812 1238.429688 C 1295.628906 1229.609375 1303.402344 1220.597656 1310.957031 1211.394531 C 1318.507812 1202.191406 1325.832031 1192.808594 1332.921875 1183.25 C 1340.015625 1173.6875 1346.867188 1163.957031 1353.480469 1154.058594 C 1360.09375 1144.15625 1366.460938 1134.101562 1372.582031 1123.890625 C 1378.703125 1113.679688 1384.570312 1103.324219 1390.179688 1092.824219 C 1395.792969 1082.328125 1401.144531 1071.695312 1406.234375 1060.933594 C 1411.324219 1050.171875 1416.148438 1039.292969 1420.703125 1028.292969 C 1425.257812 1017.292969 1429.542969 1006.191406 1433.554688 994.980469 C 1437.5625 983.773438 1441.296875 972.472656 1444.753906 961.078125 C 1448.207031 949.6875 1451.382812 938.214844 1454.277344 926.667969 C 1457.167969 915.117188 1459.777344 903.507812 1462.097656 891.832031 C 1464.421875 880.152344 1466.457031 868.429688 1468.203125 856.652344 C 1469.949219 844.875 1471.40625 833.0625 1472.574219 821.214844 C 1473.738281 809.367188 1474.617188 797.5 1475.199219 785.609375 C 1475.785156 773.71875 1476.078125 761.820312 1476.078125 749.914062 C 1476.0625 738.011719 1475.753906 726.121094 1475.15625 714.234375 C 1474.558594 702.347656 1473.667969 690.484375 1472.488281 678.640625 C 1471.3125 666.800781 1469.839844 654.992188 1468.082031 643.222656 C 1466.324219 631.453125 1464.28125 619.730469 1461.945312 608.0625 C 1459.613281 596.390625 1456.996094 584.785156 1454.09375 573.246094 C 1451.191406 561.703125 1448.011719 550.238281 1444.546875 538.851562 C 1441.082031 527.46875 1437.34375 516.171875 1433.324219 504.972656 C 1429.308594 493.769531 1425.019531 482.671875 1420.457031 471.679688 C 1415.894531 460.6875 1411.070312 449.8125 1405.972656 439.058594 C 1400.878906 428.300781 1395.527344 417.679688 1389.910156 407.183594 C 1384.296875 396.691406 1378.425781 386.34375 1372.304688 376.136719 C 1366.183594 365.933594 1359.8125 355.882812 1353.199219 345.988281 C 1346.582031 336.097656 1339.730469 326.371094 1332.636719 316.8125 C 1325.546875 307.257812 1318.226562 297.878906 1310.675781 288.679688 C 1303.121094 279.480469 1295.351562 270.472656 1287.359375 261.65625 C 1279.363281 252.839844 1271.160156 244.222656 1262.746094 235.808594 C 1254.332031 227.394531 1245.714844 219.1875 1236.898438 211.195312 C 1228.078125 203.203125 1219.070312 195.429688 1209.871094 187.878906 C 1200.675781 180.328125 1191.296875 173.007812 1181.738281 165.914062 C 1172.183594 158.824219 1162.457031 151.96875 1152.5625 145.355469 C 1142.671875 138.742188 1132.621094 132.371094 1122.417969 126.25 C 1112.210938 120.125 1101.863281 114.257812 1091.367188 108.644531 C 1080.875 103.027344 1070.25 97.671875 1059.496094 92.578125 C 1048.738281 87.484375 1037.867188 82.65625 1026.875 78.097656 C 1015.882812 73.535156 1004.785156 69.246094 993.582031 65.226562 C 982.378906 61.210938 971.085938 57.46875 959.699219 54.007812 C 948.316406 50.542969 936.851562 47.359375 925.308594 44.457031 C 913.765625 41.558594 902.160156 38.941406 890.492188 36.605469 C 878.820312 34.273438 867.101562 32.230469 855.332031 30.46875 C 843.558594 28.710938 831.753906 27.242188 819.910156 26.0625 C 808.070312 24.882812 796.207031 23.996094 784.320312 23.398438 C 772.433594 22.800781 760.539062 22.492188 748.640625 22.476562 Z M 748.640625 22.476562 " fill-opacity="1" fill-rule="nonzero"/></svg>